<svg aria-hidden="true" style="position: absolute; width: 0; height: 0; overflow: hidden;" version="1.1" xmlns="http://www.w3.org/2000/svg" xmlns:xlink="http://www.w3.org/1999/xlink"> <defs> <symbol id="icon-macaron" viewBox="0 0 26 32">
<path d="M20.001 8.93c0.059-0.043 0.117-0.087 0.178-0.128 0.066-0.045 0.145-0.111 0.215-0.041 0.017 0.025 0.027 0.056 0.027 0.090 0 0.050-0.023 0.095-0.059 0.124l-0 0c-0.185 0.271-0.352 0.554-0.54 0.822-0.059 0.143-0.117 0.319-0.162 0.499l-0.006 0.028c0.271-0.166 0.507-0.344 0.724-0.541l-0.004 0.003c0.078-0.059 0.139-0.183 0.253-0.123 0.123 0.066 0.030 0.184 0.025 0.28 0.004 0.033 0.012 0.063 0.022 0.092l-0.001-0.003c0.299-0.161 0.591-0.316 0.88-0.475 0.124-0.068 0.122-0.072 0.243 0.034 0.049 0.043 0.079-0.009 0.114-0.026 0.169-0.106 0.364-0.198 0.57-0.268l0.020-0.006c0.266-0.060 0.317-0.022 0.28 0.263 0.269-0.041 0.492-0.204 0.752-0.256 0.090-0.018 0.215-0.099 0.203 0.103-0.005 0.090 0.073 0.068 0.129 0.074 0.18-0.015 0.343-0.039 0.502-0.073l-0.025 0.005c0.058-0.001 0.149-0.016 0.145 0.056-0.011 0.21 0.13 0.147 0.237 0.15 0.037 0.001 0.074-0.003 0.111-0.005 0.32-0.013 0.356 0.023 0.329 0.338 0.045-0.002 0.089-0.002 0.132-0.006 0.084-0.008 0.208-0 0.2 0.081-0.014 0.141 0.221 0.267 0.017 0.416-0.083 0.060-0.158 0.13-0.043 0.257 0.025 0.029 0.041 0.066 0.041 0.108 0 0.083-0.062 0.151-0.142 0.161l-0.001 0c-0.343 0.116-0.496 0.504-0.86 0.589-0.066 0.015-0.066 0.084-0.034 0.148 0.019 0.027 0.030 0.060 0.030 0.096 0 0.090-0.069 0.163-0.157 0.17l-0.001 0c-0.138 0.026-0.251 0.111-0.393 0.131-0.073 0.010-0.274 0.030-0.117 0.223 0.067 0.082-0.009 0.181-0.109 0.216-0.106 0.043-0.232 0.079-0.362 0.103l-0.012 0.002c-0.005-0-0.012-0.001-0.018-0.001-0.134 0-0.243 0.109-0.243 0.243 0 0.003 0 0.005 0 0.008v-0c-0.010 0.199-0.209 0.122-0.315 0.166-0.142 0.030-0.266 0.092-0.369 0.178l0.001-0.001c-0.187 0.149-0.427 0.239-0.687 0.239-0.007 0-0.015-0-0.022-0l0.001 0c-0.007-0.001-0.014-0.001-0.022-0.001-0.089 0-0.168 0.048-0.21 0.12l-0.001 0.001c-0.066 0.103-0.18 0.169-0.309 0.169-0.001 0-0.003 0-0.004-0h0c-0.081 0.008-0.175 0.013-0.27 0.013-0.106 0-0.21-0.006-0.313-0.017l0.013 0.001c-0.214-0.043-0.165 0.172-0.226 0.281 0.623 0.144 1.134 0.294 1.634 0.471l-0.104-0.032c0.97 0.342 1.756 1.002 2.249 1.853l0.011 0.020c0.216 0.359 0.404 0.774 0.54 1.211l0.011 0.041c0.056 0.118 0.103 0.256 0.135 0.399l0.002 0.013c0.027 0.128 0.042 0.276 0.042 0.427 0 0.229-0.035 0.45-0.1 0.658l0.004-0.016c-0.027 0.067 0.030 0.074 0.063 0.086 0.205 0.085 0.355 0.267 0.394 0.487l0.001 0.004c0.041 0.198 0.068 0.429 0.075 0.665l0 0.006c0.024 0.215-0.202 0.329-0.365 0.433-0.172 0.11-0.288 0.206-0.12 0.408 0.040 0.048 0.039 0.128 0.076 0.18 0.273 0.377 0.129 0.692-0.090 1.044-0.164 0.263-0.361 0.557-0.257 0.91 0.007 0.018 0.011 0.039 0.011 0.061 0 0.039-0.013 0.074-0.034 0.103l0-0c-0.092 0.042-0.155 0.134-0.155 0.24 0 0.054 0.016 0.104 0.044 0.145l-0.001-0.001c0.031 0.053-0.068 0.096-0.14 0.094-0.002-0-0.004-0-0.006-0-0.101 0-0.184 0.071-0.205 0.165l-0 0.001c-0.176 0.39-0.437 0.714-0.761 0.959l-0.006 0.004c-0.391 0.295-0.835 0.587-1.298 0.851l-0.062 0.033c-0.664 0.343-1.436 0.636-2.244 0.838l-0.075 0.016c-0.323 0.085-0.622 0.236-0.95 0.309-0.527 0.117-1.059 0.206-1.588 0.307-0.667 0.127-1.345 0.085-2.008 0.184-0.745 0.086-1.608 0.135-2.482 0.135-0.006 0-0.011 0-0.017 0h0.001c-0.050 0.001-0.108 0.001-0.166 0.001-0.639 0-1.266-0.054-1.876-0.157l0.066 0.009c-0.873-0.122-1.739-0.295-2.617-0.375-0.708-0.064-1.4-0.227-2.103-0.319-0.338-0.070-0.636-0.166-0.918-0.291l0.028 0.011c-0.27-0.111-0.591-0.208-0.923-0.276l-0.035-0.006c-0.364-0.081-0.685-0.221-0.971-0.411l0.011 0.007c-0.422-0.232-0.786-0.489-1.118-0.783l0.006 0.006c-0.325-0.301-0.619-0.624-0.884-0.972l-0.013-0.018c-0.071-0.103-0.142-0.192-0.219-0.277l0.002 0.002c-0.044-0.030-0.072-0.080-0.072-0.137 0-0.062 0.033-0.115 0.083-0.144l0.001-0c-0.052-0.024-0.112-0.038-0.175-0.038-0.047 0-0.092 0.008-0.134 0.022l0.003-0.001c-0.125 0.056-0.392-0.207-0.411-0.348 0-0.005 0-0.012 0-0.018 0-0.176-0.036-0.343-0.102-0.495l0.003 0.008c-0.029-0.039-0.047-0.088-0.047-0.142 0-0.062 0.024-0.119 0.063-0.161l-0 0c0.128-0.139 0.144-0.351 0.318-0.456 0.049-0.029 0.025-0.072-0.008-0.111-0.098-0.113-0.158-0.261-0.158-0.423 0-0.16 0.059-0.307 0.156-0.42l-0.001 0.001c0.059-0.091 0.121-0.155-0.030-0.25-0.145-0.092-0.091-0.282-0.067-0.428 0.008-0.041 0.012-0.088 0.012-0.136 0-0.067-0.009-0.132-0.025-0.194l0.001 0.005c-0.009-0.041-0.015-0.088-0.015-0.137 0-0.227 0.118-0.426 0.297-0.539l0.003-0.002c0.054-0.023 0.095-0.068 0.111-0.123l0-0.001c0.075-0.315 0.187-0.618 0.262-0.935 0.139-0.694 0.495-1.289 0.992-1.727l0.003-0.003c0.833-0.676 1.797-1.234 2.843-1.625l0.071-0.023c0.656-0.278 1.453-0.541 2.273-0.745l0.115-0.024c0.41-0.092 0.799-0.302 1.237-0.256 0.204 0.021 0.408-0.095 0.611-0.003 0.059 0.026 0.075-0.023 0.108-0.046 0.338-0.212 0.745-0.344 1.182-0.362l0.005-0c0.422-0.056 0.796 0.113 1.197 0.122 0.386 0.009 0.48-0.049 0.602-0.413 0.282-0.927 1.126-1.591 2.126-1.598h0.001c0.135-0.016 0.29-0.025 0.448-0.025 0.168 0 0.334 0.010 0.496 0.030l-0.019-0.002c0.040 0.003 0.077 0.007 0.113 0.014l-0.006-0.001c0.289 0.087 0.288 0.088 0.302-0.232 0.022-0.502 0.046-1.004 0.066-1.506 0.003-0.075 0.030-0.164 0.094-0.147 0.19 0.051 0.165-0.106 0.186-0.187 0.044-0.161 0.051-0.332 0.088-0.495-0.002-0.012-0.003-0.027-0.003-0.041 0-0.121 0.076-0.223 0.183-0.263l0.002-0.001c0.088-0.023 0.062-0.167 0.097-0.254 0.063-0.155 0.078-0.322 0.141-0.48 0.11-0.277 0.112-0.288 0.339-0.091 0.113-0.193 0.213-0.416 0.289-0.649l0.007-0.024c0.026-0.116 0.093-0.166 0.184-0.12 0.149 0.075 0.163-0.041 0.199-0.119 0.094-0.262 0.205-0.488 0.339-0.699l-0.008 0.014c0.040-0.053 0.062-0.149 0.163-0.115 0.102 0.035 0.039 0.127 0.059 0.191 0.005 0.017 0.007 0.035 0.015 0.078 0.206-0.265 0.391-0.564 0.542-0.883l0.012-0.029c0.039-0.083 0.043-0.245 0.197-0.221 0.152 0.024 0.042 0.176 0.105 0.268 0.132-0.173 0.261-0.369 0.377-0.573l0.013-0.026c0.017-0.071 0.080-0.123 0.155-0.123 0.001 0 0.002 0 0.003 0h-0c0.12 0.001 0.036 0.123 0.114 0.167 0.192-0.222 0.383-0.444 0.576-0.665 0.042-0.048 0.089-0.129 0.155-0.099 0.035 0.029 0.056 0.072 0.056 0.12 0 0.029-0.008 0.055-0.021 0.078l0-0.001c-0.024 0.094-0.069 0.183-0.092 0.282 0.121-0.068 0.218-0.165 0.283-0.283l0.002-0.004c0.037-0.066 0.082-0.122 0.134-0.171l0-0c0.030-0.043 0.080-0.070 0.136-0.070 0.038 0 0.073 0.013 0.101 0.034l-0-0c0.062 0.061-0.021 0.135-0.075 0.181-0.078 0.082-0.134 0.186-0.155 0.302l-0.001 0.004c0.231-0.041 0.263-0.005 0.191 0.206-0.032 0.051-0.051 0.113-0.051 0.179 0 0.089 0.034 0.17 0.090 0.231l-0-0c0.096 0.103-0.016 0.262-0.085 0.36-0.118 0.17-0.097 0.382-0.202 0.551-0.006 0.010-0.010 0.023-0.010 0.036 0 0.010 0.002 0.020 0.006 0.028l-0-0c0.238 0.299-0.052 0.469-0.164 0.682-0.005 0.012-0.008 0.026-0.009 0.041l-0 0.001c0.308 0.069 0.335 0.245 0.144 0.587-0.225 0.401-0.416 0.821-0.622 1.232zM6.91 24.863c0.203 0.005 0.264 0.32 0.518 0.246-0.202-0.306-0.293-0.347-0.518-0.244-0.070-0.056-0.114-0.141-0.114-0.237 0-0.043 0.009-0.085 0.026-0.122l-0.001 0.002c0.006-0.017 0.009-0.036 0.009-0.056 0-0.074-0.045-0.137-0.11-0.164l-0.001-0c-0.041-0.025-0.067-0.011-0.079 0.035-0.023 0.083-0.071 0.097-0.151 0.065-0.082-0.009-0.147-0.075-0.154-0.157l-0-0.001c0.042-0.147-0.061-0.141-0.133-0.153-0.129-0.021-0.261-0.018-0.391-0.033-0.569-0.071-1.087-0.207-1.574-0.403l0.042 0.015c-0.283-0.116-0.633-0.23-0.993-0.322l-0.059-0.013c-0.479-0.116-0.966-0.206-1.438-0.343-0.363-0.106-0.626-0.393-0.933-0.601-0.115-0.078-0.222-0.263-0.34-0.22-0.109 0.091-0.195 0.207-0.25 0.339l-0.002 0.006c-0.005 0.006-0.009 0.012-0.014 0.017l0-0c-0.018 0.016-0.029 0.039-0.029 0.065 0 0.021 0.007 0.039 0.019 0.054l-0-0c0.032 0.037 0.063-0.011 0.095-0.016 0.163-0.023 0.379-0.084 0.394 0.161 0.015 0.241 0.183 0.229 0.324 0.28 0.026 0.009 0.060-0.003 0.087 0.004 0.034 0.002 0.061 0.031 0.061 0.065 0 0.003-0 0.006-0.001 0.009l0-0c-0.012 0.026-0.036 0.044-0.064 0.048l-0 0c-0.009 0-0.019 0-0.030 0-0.142 0-0.281-0.016-0.414-0.046l0.013 0.002c-0.114-0.034-0.051-0.168-0.072-0.256-0.002-0.068-0.044-0.125-0.102-0.15l-0.001-0c-0.012-0.004-0.025-0.006-0.039-0.006-0.048 0-0.091 0.026-0.114 0.065l-0 0.001c-0.042 0.066-0.066 0.147-0.066 0.233 0 0.073 0.018 0.141 0.049 0.202l-0.001-0.002c0.052 0.087 0.146 0.145 0.254 0.145 0.009 0 0.018-0 0.027-0.001l-0.001 0c0.195 0.015 0.373 0.077 0.526 0.175l-0.004-0.003c0.365 0.23 0.738 0.471 1.212 0.392 0.132 0.001 0.248 0.072 0.311 0.178l0.001 0.002c0.287 0.324 0.39 0.35 0.811 0.184 0.084-0.033 0.186-0.049 0.207 0.041 0.031 0.13 0.095 0.061 0.155 0.058 0.027-0.007 0.059-0.011 0.092-0.011 0.037 0 0.073 0.005 0.107 0.015l-0.003-0.001c0.149 0.067 0.323 0.106 0.506 0.106 0.085 0 0.169-0.008 0.249-0.025l-0.008 0.001c0.061-0.007 0.132-0.011 0.204-0.011 0.175 0 0.344 0.023 0.505 0.065l-0.014-0.003c0.16 0.049 0.289 0.123 0.206 0.33-0.010 0.016-0.015 0.036-0.015 0.057 0 0.034 0.014 0.064 0.037 0.085l0 0c0.014 0.006 0.031 0.010 0.048 0.010 0.029 0 0.056-0.010 0.077-0.027l-0 0c0.061-0.025 0.112-0.051 0.161-0.082l-0.004 0.002c0.29-0.249 0.598-0.136 0.906-0.053zM9.85 21.526l0.005 0.004c-0.073-0.058-0.128-0.134-0.159-0.222l-0.001-0.003c0.020-0.237-0.11-0.179-0.236-0.127-0.047 0.019-0.086 0.056-0.133 0.073-0.073 0.027-0.187 0.063-0.216-0.003-0.045-0.105 0.091-0.101 0.15-0.14 0.042-0.018 0.091-0.030 0.142-0.034l0.001-0c-0.045-0.093-0.138-0.155-0.246-0.155-0.059 0-0.114 0.019-0.158 0.051l0.001-0.001c-0.043 0.021-0.096 0.044-0.15 0.063l-0.011 0.003c-0.209 0.084-0.279 0.047-0.318-0.169 0.001-0.005 0.001-0.010 0.001-0.016 0-0.047-0.024-0.089-0.060-0.114l-0-0c-0.062-0.029-0.135-0.047-0.212-0.047-0.129 0-0.247 0.048-0.336 0.128l0.001-0c-0.059 0.084-0.155 0.139-0.265 0.139-0.043 0-0.084-0.008-0.122-0.024l0.002 0.001c-0.033-0.013-0.072-0.021-0.113-0.021-0.028 0-0.056 0.004-0.082 0.011l0.002-0c-0.028 0.018-0.062 0.029-0.098 0.029-0.079 0-0.147-0.051-0.171-0.122l-0-0.001c-0.068-0.117-0.133-0.11-0.249-0.053-0.191 0.094-0.385 0.275-0.636 0.029 0.068 0.159-0.040 0.47 0.279 0.247 0.009-0.003 0.020-0.005 0.031-0.005 0.026 0 0.049 0.009 0.067 0.025l-0-0c0.033 0.048-0.016 0.079-0.051 0.101s-0.083 0.032-0.117 0.058c-0.185 0.144-0.444 0.167-0.614 0.367 0.403-0.030 0.773-0.146 1.1-0.329l-0.013 0.007c0.041-0.048 0.102-0.078 0.17-0.078 0.010 0 0.020 0.001 0.029 0.002l-0.001-0c0.053 0.018 0.115 0.028 0.178 0.028 0.105 0 0.204-0.028 0.29-0.076l-0.003 0.002c0.023-0.008 0.050-0.013 0.078-0.013 0.101 0 0.187 0.064 0.221 0.153l0.001 0.002c0.063 0.081-0.004 0.147-0.071 0.194-0.063 0.044-0.153 0.075-0.184-0.016-0.064-0.184-0.185-0.106-0.302-0.095-0.212 0.020-0.394 0.152-0.591 0.181-0.279 0.046-0.516 0.1-0.747 0.167l0.045-0.011c-0.051 0.014-0.111 0.023-0.172 0.025l-0.001 0c-0.004 0-0.008 0-0.012 0-0.073 0-0.135-0.048-0.157-0.113l-0-0.001c-0.003-0.011-0.004-0.023-0.004-0.035 0-0.058 0.034-0.108 0.084-0.131l0.001-0c0.081-0.058 0.174-0.113 0.271-0.16l0.012-0.005c0.116-0.055 0.070-0.113 0.028-0.191-0.062-0.117-0.093-0.009-0.136 0.010-0.116 0.050-0.197 0.204-0.384 0.121 0.129-0.177 0.375-0.198 0.484-0.386-0.145-0.081-0.341 0.044-0.412-0.058-0.072-0.089-0.181-0.145-0.303-0.145-0.053 0-0.104 0.011-0.15 0.030l0.003-0.001c-0.132 0.013-0.18-0.019-0.135-0.148 0.025-0.072 0.099-0.166-0.025-0.194-0.038-0.022-0.083-0.034-0.132-0.034-0.091 0-0.171 0.045-0.22 0.113l-0.001 0.001c-0.059 0.161-0.213 0.367 0.079 0.508-0.286 0.044-0.351-0.058-0.306-0.427-0.015-0.005-0.032-0.008-0.050-0.008-0.028 0-0.054 0.007-0.077 0.019l0.001-0c-0.13 0.080-0.24 0.178-0.331 0.291l-0.002 0.003c-0.269 0.204-0.609 0.327-0.978 0.327-0.085 0-0.169-0.007-0.251-0.019l0.009 0.001c-0.141-0.016-0.276-0.021-0.141-0.232 0.047-0.088 0.082-0.19 0.099-0.297l0.001-0.005c-0.197 0.081-0.422-0.008-0.594 0.141-0.012 0.009-0.027 0.014-0.043 0.014-0.030 0-0.057-0.018-0.069-0.044l-0-0c-0.007-0.013-0.011-0.028-0.011-0.045 0-0.031 0.014-0.058 0.036-0.076l0-0c0.114-0.092 0.235-0.176 0.343-0.275 0.122-0.111 0.195-0.123 0.185 0.072-0.005 0.094 0.053 0.073 0.099 0.065 0.066-0.016 0.121-0.033 0.175-0.053l-0.010 0.003c0.050-0.015 0.099-0.080 0.151-0.003 0.020 0.026 0.032 0.060 0.032 0.096 0 0.041-0.015 0.078-0.040 0.106l0-0c-0.066 0.038-0.109 0.108-0.109 0.188 0 0.006 0 0.011 0.001 0.017l-0-0.001c0.028-0.011 0.061-0.017 0.096-0.017 0.073 0 0.139 0.028 0.189 0.073l-0-0c0.059 0.105-0.134 0.052-0.136 0.175 0.006 0 0.014 0 0.022 0 0.216 0 0.422-0.041 0.61-0.117l-0.011 0.004c0.174-0.046 0.3-0.202 0.3-0.387 0-0.059-0.013-0.116-0.036-0.166l0.001 0.003c-0.049-0.165-0.116-0.222-0.28-0.114-0.191 0.125-0.391 0.219-0.583-0.010-0.030-0.032-0.071-0.052-0.118-0.052-0 0-0.001 0-0.001 0h0c-0.004 0-0.008 0-0.013 0-0.15 0-0.278-0.090-0.334-0.219l-0.001-0.002c-0.058-0.087-0.11-0.168-0.244-0.087-0.025 0.015-0.056 0.025-0.089 0.025-0.070 0-0.13-0.041-0.158-0.101l-0-0.001c-0.059-0.106-0.132-0.091-0.219-0.039-0.068 0.041-0.145 0.069-0.21 0.114-0.027 0.031-0.066 0.050-0.109 0.050-0.073 0-0.134-0.055-0.143-0.126l-0-0.001c-0.077-0.218-0.385-0.113-0.459-0.332-0.019 0.008-0.035 0.020-0.047 0.035l-0 0c-0.029 0.077-0.095 0.053-0.149 0.057-0.126 0.006-0.229 0.103-0.244 0.226l-0 0.001c-0.068 0.25 0.045 0.502-0.025 0.752-0.001 0.007-0.002 0.015-0.002 0.023 0 0.068 0.055 0.124 0.123 0.125h0c0.259 0.036 0.488 0.088 0.71 0.157l-0.031-0.008c0.119 0.015 0.217 0.093 0.261 0.198l0.001 0.002c0.052 0.2 0.231 0.345 0.443 0.345 0.070 0 0.136-0.016 0.196-0.044l-0.003 0.001c0.214-0.086 0.673-0.021 0.732 0.13 0.084 0.215 0.2 0.155 0.312 0.060 0.094-0.087 0.219-0.14 0.358-0.14 0.085 0 0.164 0.020 0.235 0.055l-0.003-0.001c0.049 0.038 0.112 0.060 0.18 0.060 0.040 0 0.079-0.008 0.114-0.023l-0.002 0.001c0.038-0.024 0.084-0.039 0.134-0.039 0.073 0 0.139 0.031 0.185 0.081l0 0c0.2 0.153 0.339 0.42 0.661 0.336 0.038 0.007 0.070 0.026 0.094 0.053l0 0c0.034 0.023 0.075 0.037 0.12 0.037 0.028 0 0.055-0.005 0.080-0.015l-0.001 0c0.080-0.021 0.171-0.034 0.266-0.034 0.197 0 0.382 0.053 0.541 0.146l-0.005-0.003c0.247 0.182 0.421 0.077 0.636 0.013 0.303-0.090 0.588-0.278 0.935-0.095 0.051 0.023 0.11 0.037 0.172 0.037 0.108 0 0.206-0.040 0.281-0.106l-0 0c0.095-0.067 0.212-0.107 0.339-0.107 0.145 0 0.278 0.052 0.381 0.139l-0.001-0.001c0.063 0.055 0.146 0.088 0.237 0.090h0c0.020-0.003 0.043-0.004 0.067-0.004 0.188 0 0.354 0.093 0.455 0.236l0.001 0.002c0.027 0.032 0.066 0.051 0.111 0.051 0.033 0 0.064-0.011 0.088-0.030l-0 0c0.142-0.055 0.284-0.108 0.426-0.162 0.085-0.032 0.184-0.038 0.191 0.068 0.014 0.186 0.13 0.135 0.214 0.1 0.079-0.037 0.174-0.072 0.272-0.099l0.014-0.003c0.059-0.014 0.095-0.109 0.172-0.054 0.092 0.066 0.003 0.148 0.012 0.226 0.088 0.010 0.208 0.050 0.241-0.041 0.076-0.211 0.218-0.137 0.339-0.095 0.054 0.021 0.117 0.034 0.183 0.034 0.050 0 0.099-0.007 0.145-0.021l-0.004 0.001c0.109-0.032 0.236-0.052 0.366-0.055l0.002-0c0.122-0.007 0.164 0.019 0.104 0.148-0.074 0.16 0.020 0.169 0.147 0.14 0.214-0.057 0.399-0.156 0.556-0.288l-0.002 0.002c0.067-0.070 0.161-0.114 0.265-0.114 0.125 0 0.235 0.063 0.301 0.159l0.001 0.001c0.18 0.194 0.276 0.189 0.433-0.027 0.047-0.065 0.086-0.136 0.133-0.201 0.032-0.060 0.095-0.1 0.167-0.1 0.029 0 0.057 0.007 0.082 0.019l-0.001-0c0.186 0.194 0.378 0.061 0.568 0.049 0.026-0.009 0.057-0.014 0.089-0.014 0.054 0 0.104 0.015 0.147 0.042l-0.001-0.001c0.192 0.198 0.359 0.079 0.539-0.018 0.115-0.062 0.25-0.132 0.321 0.063 0.026 0.071 0.082 0.050 0.129 0.048 0.199-0.007 0.399-0.011 0.597-0.030 0.014 0.002 0.030 0.004 0.046 0.004 0.089 0 0.169-0.039 0.223-0.102l0-0c0.033-0.209 0.139-0.128 0.226-0.079 0.145 0.082 0.228 0.052 0.275-0.106 0.035-0.104 0.132-0.177 0.246-0.177 0.027 0 0.052 0.004 0.077 0.012l-0.002-0c0.101 0.017 0.191 0.048 0.274 0.092l-0.005-0.002c0.030 0.021 0.068 0.034 0.109 0.034 0.080 0 0.148-0.049 0.177-0.118l0-0.001c0.134-0.213 0.243-0.217 0.445-0.055 0.108 0.094 0.251 0.152 0.407 0.152 0.036 0 0.071-0.003 0.105-0.009l-0.004 0c0.333-0.050 0.632-0.166 0.894-0.333l-0.009 0.006c0.023-0.026 0.055-0.042 0.092-0.042 0.039 0 0.074 0.019 0.097 0.047l0 0c0.081 0.117 0.214 0.193 0.365 0.193 0.1 0 0.193-0.033 0.267-0.089l-0.001 0.001c0.101-0.070 0.226-0.113 0.361-0.113 0.063 0 0.124 0.009 0.182 0.026l-0.005-0.001c0.046 0.023 0.101 0.036 0.159 0.036 0.151 0 0.281-0.091 0.337-0.222l0.001-0.002c0.038-0.058 0.102-0.096 0.176-0.096 0.052 0 0.099 0.019 0.136 0.050l-0-0c0.075 0.054 0.14 0.11 0.201 0.172l0 0c0.030 0.025 0.083 0.086 0.104 0.028 0.117-0.318 0.368-0.181 0.577-0.179 0.015 0.003 0.032 0.004 0.050 0.004 0.099 0 0.186-0.050 0.238-0.125l0.001-0.001c0.081-0.167 0.154-0.117 0.269-0.041 0.054 0.051 0.128 0.082 0.208 0.082 0.129 0 0.239-0.080 0.283-0.193l0.001-0.002c0.049-0.082 0.12-0.146 0.205-0.185l0.003-0.001c0.392-0.146 0.393-0.48 0.373-0.808-0.005-0.186-0.089-0.352-0.22-0.465l-0.001-0.001c-0.044-0.055-0.111-0.091-0.186-0.091-0.080 0-0.151 0.040-0.194 0.101l-0 0.001c-0.128 0.159-0.216 0.361-0.479 0.245-0.022 0.003-0.042 0.015-0.053 0.032l-0 0c-0.163 0.235-0.297 0.186-0.419-0.038-0.021-0.031-0.047-0.057-0.076-0.078l-0.001-0.001c-0.030-0.041-0.078-0.067-0.132-0.067-0.016 0-0.031 0.002-0.045 0.006l0.001-0c-0.038 0.022-0.063 0.062-0.063 0.108 0 0.016 0.003 0.031 0.008 0.045l-0-0.001c0.001 0.007 0.002 0.015 0.002 0.023 0 0.082-0.066 0.148-0.148 0.148-0.011 0-0.023-0.001-0.033-0.004l0.001 0c-0.014 0.001-0.031 0.002-0.047 0.002-0.076 0-0.149-0.015-0.215-0.043l0.004 0.001c-0.030-0.023-0.068-0.037-0.11-0.037-0.082 0-0.151 0.054-0.173 0.129l-0 0.001c-0.027 0.089-0.109 0.153-0.205 0.153-0.045 0-0.087-0.014-0.121-0.037l0.001 0c-0.114-0.066-0.168 0.016-0.234 0.088-0.112 0.119-0.27 0.193-0.446 0.193-0.165 0-0.314-0.065-0.424-0.171l0 0c-0.047-0.056-0.117-0.092-0.195-0.092-0.036 0-0.070 0.007-0.101 0.021l0.002-0.001c-0.147 0.051-0.286 0.212-0.404 0.191-0.027-0.005-0.058-0.008-0.090-0.008-0.173 0-0.326 0.087-0.418 0.22l-0.001 0.002c-0.044 0.048-0.099 0.087-0.142 0.012-0.031-0.051-0.087-0.084-0.15-0.084-0.038 0-0.073 0.012-0.102 0.033l0-0c-0.025 0.017-0.056 0.027-0.089 0.027-0.050 0-0.094-0.022-0.124-0.057l-0-0c-0.053-0.070-0.136-0.115-0.23-0.115-0.083 0-0.158 0.035-0.21 0.091l-0 0c-0.069 0.045-0.149 0.089-0.233 0.127l-0.012 0.005c-0.031 0.030-0.073 0.049-0.119 0.049-0.084 0-0.154-0.061-0.168-0.142l-0-0.001c-0.048-0.117-0.11-0.244-0.291-0.156-0.076 0.037-0.124-0.022-0.165-0.1-0.102-0.196-0.196-0.213-0.328-0.048-0.063 0.091-0.166 0.15-0.284 0.15-0.044 0-0.086-0.008-0.125-0.024l0.002 0.001c-0.083-0.030-0.178-0.047-0.277-0.047-0.239 0-0.456 0.099-0.61 0.259l-0 0c-0.092 0.098-0.222 0.16-0.367 0.16-0.029 0-0.057-0.002-0.084-0.007l0.003 0c-0.074-0.015-0.176-0.035-0.185 0.053-0.013 0.123 0.105 0.067 0.161 0.063 0.182-0.013 0.17 0.053 0.112 0.191-0.071 0.126-0.142 0.233-0.218 0.334l0.005-0.007c-0.017 0.037-0.026 0.081-0.026 0.126 0 0.053 0.013 0.102 0.036 0.146l-0.001-0.002c0.017 0.035 0.052 0.059 0.092 0.059 0.015 0 0.029-0.003 0.041-0.009l-0.001 0c0.167-0.035 0.315-0.094 0.449-0.174l-0.007 0.004c0.056-0.064 0.139-0.105 0.231-0.105 0.022 0 0.043 0.002 0.064 0.007l-0.002-0c-0.19 0.177-0.41 0.326-0.652 0.438l-0.015 0.006c-0.023 0.011-0.051 0.018-0.080 0.018-0.025 0-0.049-0.005-0.071-0.014l0.001 0c-0.12-0.072-0.258-0.132-0.404-0.172l-0.012-0.003c-0.052-0.030-0.097-0.065-0.136-0.105l-0-0c-0.063-0.060-0.071-0.137 0.034-0.128 0.008 0.001 0.017 0.001 0.026 0.001 0.167 0 0.308-0.107 0.36-0.256l0.001-0.003c0.045-0.035 0.074-0.088 0.075-0.149v-0c-0.038-0.038-0.090-0.061-0.148-0.061-0.019 0-0.037 0.002-0.054 0.007l0.001-0c-0.075 0.011-0.142 0.043-0.196 0.089l0.001-0c-0.128 0.081-0.254 0.165-0.383 0.244-0.060 0.036-0.139 0.105-0.187 0.011-0.030-0.060 0.056-0.099 0.107-0.138 0.13-0.102 0.327-0.098 0.416-0.262-0.223-0.13-0.491-0.206-0.776-0.206-0.048 0-0.096 0.002-0.143 0.006l0.006-0c-0.063 0.010-0.166-0.011-0.162 0.072 0.015 0.309-0.24 0.247-0.402 0.307-0.129 0.042-0.278 0.068-0.433 0.069h-0.001c-0.126 0.020-0.229 0.1-0.281 0.21l-0.001 0.002c-0.078 0.124 0.049 0.15 0.1 0.204 0.157 0.168-0.102 0.085-0.095 0.175 0.074 0 0.204 0.014 0.128 0.109-0.056 0.045-0.127 0.072-0.205 0.072-0.077 0-0.147-0.027-0.203-0.071l0.001 0c-0.122-0.058-0.047-0.167 0.045-0.236 0.032-0.024 0.080-0.059 0.047-0.108-0.018-0.019-0.044-0.030-0.072-0.030-0.018 0-0.036 0.005-0.051 0.013l0.001-0c-0.072 0.054-0.164 0.087-0.263 0.087-0.023 0-0.045-0.002-0.067-0.005l0.002 0c-0.031-0.019-0.069-0.030-0.11-0.030-0.084 0-0.157 0.049-0.192 0.119l-0.001 0.001c-0.227 0.373-0.647 0.283-0.97 0.421-0.066 0.028-0.167-0.030-0.095-0.097 0.137-0.128 0.2-0.216-0.007-0.319-0.004-0.005-0.007-0.011-0.007-0.019 0-0.001 0-0.001 0-0.002v0c-0.010-0.294-0.161-0.132-0.251-0.066-0.114 0.066-0.246 0.124-0.384 0.167l-0.014 0.004c-0.011 0.005-0.023 0.008-0.037 0.008-0.041 0-0.076-0.028-0.086-0.067l-0-0.001c-0.003-0.008-0.005-0.016-0.005-0.026 0-0.030 0.020-0.055 0.047-0.063l0-0c0.303-0.025 0.551-0.216 0.841-0.277 0.090-0.019 0.171-0.024 0.111 0.117-0.026 0.060-0.092 0.133-0.020 0.203 0.029 0.020 0.064 0.032 0.103 0.032 0.046 0 0.088-0.017 0.12-0.046l-0 0c0.031-0.032 0.075-0.051 0.123-0.051 0.028 0 0.055 0.007 0.079 0.019l-0.001-0c0.073 0.063-0.062 0.121-0.005 0.207 0.297-0.053 0.446-0.289 0.641-0.507-0.193-0.022-0.354-0.142-0.432-0.308l-0.001-0.003c-0.127-0.192-0.245-0.231-0.406-0.049-0.147 0.166-0.34 0.133-0.512 0.193-0.264 0.092-0.326-0.085-0.433-0.232-0.056-0.077-0.121-0.149-0.169-0.208-0.059 0.022-0.101 0.076-0.105 0.141l-0 0c-0.040 0.258-0.114 0.293-0.351 0.172-0.022-0.016-0.046-0.031-0.072-0.044l-0.003-0.001c-0.010-0.005-0.022-0.007-0.034-0.007-0.034 0-0.064 0.020-0.078 0.049l-0 0.001c-0.024 0.048 0.020 0.069 0.048 0.076 0.085 0.021 0.066 0.089 0.066 0.142 0.002 0.144 0.040 0.228 0.208 0.166 0.011-0.005 0.023-0.008 0.037-0.008 0.042 0 0.077 0.031 0.083 0.071l0 0c0 0 0 0 0 0.001 0 0.054-0.040 0.099-0.093 0.107l-0.001 0c-0.006-0.001-0.014-0.001-0.021-0.001-0.069 0-0.132 0.028-0.178 0.072l0-0zM8.858 14.126c-0.093-0.019-0.199-0.030-0.308-0.030-0.018 0-0.036 0-0.054 0.001l0.003-0c-0.686 0.104-1.341 0.336-2.012 0.503-0.308 0.077-0.6 0.226-0.904 0.313-0.455 0.127-0.84 0.269-1.211 0.439l0.050-0.021c-0.693 0.322-1.274 0.647-1.829 1.008l0.057-0.035c-0.584 0.348-1.044 0.85-1.332 1.451l-0.009 0.020c-0.115 0.29-0.224 0.644-0.306 1.009l-0.010 0.051c-0.044 0.157-0.22 0.341 0.065 0.49 0.056 0.078 0.143 0.132 0.242 0.145l0.002 0c0.001 0 0.001-0 0.002-0 0.037 0 0.070 0.019 0.089 0.047l0 0c0.093 0.289 0.231 0.146 0.371 0.047 0.041-0.022 0.088-0.041 0.138-0.053l0.004-0.001c0.166-0.059 0.173 0.107 0.255 0.17 0.098 0.074 0.229-0.151 0.335-0.004 0.134 0.171 0.309 0.304 0.509 0.388l0.008 0.003c0.069 0.043 0.152 0.069 0.242 0.069 0.109 0 0.209-0.038 0.288-0.101l-0.001 0.001c0.045-0.043 0.105-0.069 0.172-0.069 0.106 0 0.196 0.066 0.232 0.159l0.001 0.002c0.058 0.123 0.11 0.096 0.202 0.059 0.276-0.111 0.566-0.006 0.848-0.038 0.002-0 0.005-0 0.007-0 0.043 0 0.082 0.020 0.107 0.051l0 0c0.061 0.192 0.238 0.328 0.447 0.328 0.004 0 0.008-0 0.011-0h-0.001c0.020 0.011 0.036 0.025 0.050 0.042l0 0c0.071 0.058 0.162 0.093 0.262 0.093 0.044 0 0.087-0.007 0.127-0.020l-0.003 0.001c0.115-0.033 0.26-0.101 0.347 0.073 0.029 0.013 0.063 0.020 0.098 0.020 0.009 0 0.018-0 0.027-0.001l-0.001 0c0.138-0.009 0.26-0.074 0.342-0.173l0.001-0.001c0.039-0.040 0.093-0.065 0.154-0.065 0.079 0 0.148 0.043 0.185 0.106l0.001 0.001c0.093 0.086 0.218 0.138 0.355 0.138 0.103 0 0.199-0.030 0.28-0.081l-0.002 0.001c0.129-0.093 0.29-0.149 0.465-0.149 0.125 0 0.243 0.029 0.348 0.080l-0.005-0.002c0.072 0.024 0.125 0.083 0.139 0.157l0 0.001c0.005 0.151 0.074 0.103 0.155 0.061 0.069-0.052 0.156-0.084 0.251-0.084 0.103 0 0.197 0.037 0.27 0.099l-0.001-0c0.035 0.030 0.093 0.075 0.117-0.013 0.060-0.218 0.176-0.218 0.342-0.104 0.107 0.074 0.193 0.080 0.228-0.094 0.042-0.21 0.14-0.235 0.302-0.095 0.083 0.072 0.162 0.149 0.239 0.228 0.104 0.105 0.54 0.157 0.614 0.037 0.14-0.225 0.394-0.195 0.578-0.314 0.091-0.059 0.153-0.021 0.114 0.085-0.016 0.035-0.026 0.076-0.026 0.119 0 0.12 0.074 0.222 0.179 0.264l0.002 0.001c0.165 0.088 0.22-0.085 0.287-0.17 0.234-0.291 0.393-0.259 0.627-0.007 0.056 0.067 0.14 0.109 0.233 0.109 0.026 0 0.051-0.003 0.076-0.009l-0.002 0c0.137-0.022 0.27-0.074 0.407-0.083 0.006 0 0.014 0.001 0.021 0.001 0.159 0 0.288-0.127 0.291-0.286v-0c0-0.061 0.050-0.11 0.111-0.11 0.009 0 0.019 0.001 0.027 0.003l-0.001-0c0.356 0.014 0.692 0.070 1.014 0.161l-0.030-0.007c0.030 0.017 0.065 0.026 0.102 0.026 0.085 0 0.159-0.050 0.193-0.123l0.001-0.001c0.041-0.086 0.126-0.144 0.226-0.144 0.034 0 0.067 0.007 0.096 0.019l-0.002-0.001c0.043 0.031 0.097 0.049 0.155 0.049 0.117 0 0.216-0.075 0.252-0.18l0.001-0.002c0.019-0.031 0.048-0.055 0.082-0.067l0.001-0c0.166-0.072 0.359-0.115 0.562-0.115 0.087 0 0.173 0.008 0.256 0.023l-0.009-0.001c0.033 0.015 0.071 0.023 0.112 0.023 0.111 0 0.207-0.064 0.253-0.156l0.001-0.002c0.047-0.088 0.138-0.147 0.242-0.147 0.099 0 0.186 0.053 0.234 0.132l0.001 0.001c0.053 0.084 0.145 0.139 0.25 0.139 0.003 0 0.006-0 0.009-0h-0c0.006-0.001 0.013-0.002 0.020-0.002 0.048 0 0.090 0.027 0.111 0.066l0 0.001c0.129 0.273 0.31 0.216 0.515 0.096 0.067-0.057 0.155-0.092 0.251-0.092 0.057 0 0.11 0.012 0.159 0.034l-0.002-0.001c0.109 0.073 0.242 0.116 0.386 0.116 0.155 0 0.298-0.050 0.414-0.135l-0.002 0.001c0.053-0.046 0.123-0.075 0.199-0.076h0c0.023 0.003 0.050 0.004 0.077 0.004 0.154 0 0.297-0.049 0.414-0.132l-0.002 0.001c0.058-0.041 0.13-0.065 0.207-0.065 0.101 0 0.192 0.041 0.258 0.108l0 0c0.045 0.088 0.135 0.148 0.239 0.148 0.069 0 0.132-0.026 0.18-0.070l-0 0c0.090-0.051 0.245 0.036 0.281-0.117 0.041-0.174 0.14-0.156 0.265-0.107 0.087 0.034 0.2 0.094 0.253-0.020 0.047-0.116 0.16-0.197 0.291-0.197 0.061 0 0.117 0.017 0.165 0.047l-0.001-0.001c0.129 0.041 0.228 0.061 0.252-0.146 0.027-0.239 0.192-0.275 0.397-0.14 0.107 0.071 0.176 0.186 0.307 0.259 0.024-0.212 0.119-0.233 0.271-0.135 0.049 0.032 0.117 0.090 0.174 0.010 0.122-0.173 0.327-0.344 0.338-0.526 0.014-0.116 0.021-0.25 0.021-0.387 0-0.144-0.009-0.286-0.026-0.425l0.002 0.017c-0.121-0.454-0.262-0.842-0.433-1.214l0.019 0.047c-0.261-0.683-0.696-1.25-1.252-1.665l-0.010-0.007c-0.618-0.499-1.388-0.716-2.138-0.953-0.313-0.099-0.637-0.138-0.952-0.226-0.175-0.049-0.407-0.143-0.576 0.018-0.097 0.085-0.224 0.136-0.364 0.136-0.010 0-0.020-0-0.030-0.001l0.001 0c-0.178 0.013-0.401-0.14-0.521 0.126-0.015 0.010-0.034 0.015-0.054 0.015-0.010 0-0.019-0.001-0.028-0.004l0.001 0c-0.225-0.028-0.485-0.045-0.75-0.045-0.199 0-0.396 0.009-0.59 0.027l0.025-0.002c-0.002-0-0.005-0-0.007-0-0.096 0-0.182 0.044-0.239 0.112l-0 0.001c-0.191 0.203-0.384 0.405-0.59 0.591-0.427 0.349-0.951 0.596-1.525 0.694l-0.020 0.003c-0.070 0.006-0.151 0.009-0.232 0.009-0.217 0-0.428-0.024-0.632-0.070l0.019 0.004c-0.009 0-0.019 0-0.029 0-0.266 0-0.512-0.084-0.714-0.228l0.004 0.003c-0.056-0.071-0.142-0.117-0.239-0.117-0.002 0-0.003 0-0.005 0h0c0.253 0.579-0.016 1.075-0.324 1.485-0.471 0.679-1.236 1.125-2.107 1.152l-0.004 0c-0.052 0.006-0.113 0.009-0.174 0.009-0.668 0-1.244-0.391-1.513-0.957l-0.004-0.010c-0.095-0.155-0.185-0.335-0.26-0.523l-0.009-0.024c-0.083-0.244-0.131-0.526-0.131-0.819 0-0.089 0.004-0.176 0.013-0.263l-0.001 0.011c0.103-0.516 0.327-0.969 0.641-1.343l-0.004 0.005zM19.118 23.474c0.345-0.004 0.677-0.049 0.994-0.132l-0.029 0.006c0.336-0.081 0.748-0.15 1.168-0.193l0.041-0.003c0.612-0.066 1.16-0.169 1.694-0.309l-0.079 0.018c0.548-0.136 1.12-0.211 1.597-0.563 0.124-0.091 0.351-0.441 0.3-0.575-0.060-0.186-0.141-0.347-0.242-0.493l0.004 0.006c-0.075-0.097-0.233-0.011-0.353-0.032-0.038-0.005-0.073-0.016-0.104-0.031l0.002 0.001c-0.029-0.017-0.064-0.027-0.102-0.027-0.053 0-0.101 0.020-0.138 0.054l0-0c-0.094 0.077-0.215 0.123-0.347 0.123-0.052 0-0.101-0.007-0.149-0.020l0.004 0.001c-0.125-0.032-0.252-0.027-0.254 0.168-0.002 0.16-0.118 0.15-0.216 0.099-0.092-0.060-0.172-0.121-0.247-0.187l0.002 0.002c-0.099-0.073-0.213-0.106-0.288 0.015-0.083 0.117-0.217 0.192-0.37 0.192-0.057 0-0.112-0.011-0.162-0.030l0.003 0.001c-0.049-0.010-0.104-0.016-0.161-0.016-0.126 0-0.245 0.029-0.352 0.080l0.005-0.002c-0.083 0.053-0.183 0.084-0.292 0.084-0.047 0-0.093-0.006-0.137-0.017l0.004 0.001c-0.124-0.036-0.266-0.056-0.413-0.056-0.169 0-0.331 0.027-0.483 0.077l0.011-0.003c-0.261 0.058-0.507 0.248-0.792 0.085-0.007-0.003-0.015-0.004-0.024-0.004-0.014 0-0.027 0.004-0.039 0.011l0-0c-0.101 0.069-0.147 0.033-0.199-0.070-0.015-0.052-0.062-0.089-0.118-0.089-0.046 0-0.086 0.025-0.107 0.062l-0 0.001c-0.207 0.244-0.276 0.258-0.551 0.115-0.212-0.11-0.3-0.077-0.371 0.139-0.042 0.13-0.103 0.208-0.257 0.131-0.025-0.022-0.059-0.035-0.095-0.035-0.033 0-0.063 0.011-0.088 0.029l0-0c-0.111 0.076-0.249 0.121-0.397 0.121-0.012 0-0.024-0-0.036-0.001l0.002 0c-0.033-0.002-0.072-0.002-0.111-0.002-0.217 0-0.427 0.027-0.628 0.078l0.018-0.004c-0.015 0.008-0.034 0.013-0.053 0.013-0.052 0-0.096-0.036-0.108-0.084l-0-0.001c-0.027-0.138-0.1-0.092-0.177-0.059-0.080 0.042-0.174 0.080-0.272 0.111l-0.012 0.003c-0.077 0.018-0.184 0.099-0.241-0.006-0.146-0.268-0.313-0.15-0.481-0.041-0.070 0.045-0.137 0.076-0.192-0.003-0.15-0.219-0.252-0.139-0.365 0.038-0.043 0.070-0.097 0.128-0.16 0.174l-0.002 0.001c-0.068 0.059-0.157 0.095-0.255 0.095-0.13 0-0.245-0.063-0.316-0.161l-0.001-0.001c-0.023-0.070-0.088-0.12-0.165-0.12-0.051 0-0.097 0.022-0.129 0.058l-0 0c-0.116 0.1-0.25 0.182-0.397 0.239l-0.009 0.003c-0.186 0.044-0.412 0.145-0.542-0.047-0.030-0.075-0.102-0.128-0.186-0.128-0.031 0-0.060 0.007-0.086 0.019l0.001-0.001c-0.051 0.020-0.11 0.032-0.171 0.032-0.081 0-0.158-0.020-0.225-0.056l0.003 0.001c-0.020-0.011-0.044-0.018-0.070-0.018-0.057 0-0.106 0.033-0.13 0.080l-0 0.001c-0.061 0.072-0.152 0.118-0.254 0.118-0.069 0-0.133-0.021-0.186-0.057l0.001 0.001c-0.060-0.068-0.147-0.111-0.245-0.111-0.074 0-0.142 0.024-0.196 0.066l0.001-0.001c-0.032 0.018-0.070 0.029-0.111 0.029-0.068 0-0.129-0.029-0.171-0.076l-0-0c-0.077-0.132-0.151-0.101-0.254-0.062-0.115 0.043-0.235 0.069-0.351 0.108-0.12 0.040-0.222 0.033-0.253-0.11-0.027-0.074-0.097-0.125-0.178-0.126h-0c-0.166-0.068-0.362 0.010-0.519-0.131-0.075-0.072-0.176-0.116-0.288-0.116-0.103 0-0.198 0.038-0.27 0.1l0.001-0c-0.079 0.068-0.182 0.109-0.295 0.109-0.047 0-0.092-0.007-0.135-0.020l0.003 0.001c-0.117-0.039-0.253-0.061-0.393-0.061-0.272 0-0.525 0.084-0.734 0.227l0.004-0.003c-0.032 0.016-0.071 0.025-0.111 0.025-0.013 0-0.027-0.001-0.040-0.003l0.001 0c-0.188-0.020-0.434 0.12-0.527-0.18-0.012-0.006-0.026-0.009-0.041-0.010l-0-0c-0.292-0.067-0.628-0.106-0.972-0.106-0.051 0-0.103 0.001-0.154 0.003l0.007-0c-0.016 0.002-0.034 0.004-0.052 0.004-0.155 0-0.287-0.099-0.336-0.238l-0.001-0.003c-0.027-0.102-0.119-0.176-0.228-0.176-0.019 0-0.038 0.002-0.056 0.007l0.002-0c-0.045 0.015-0.096 0.024-0.149 0.024-0.074 0-0.145-0.017-0.208-0.047l0.003 0.001c-0.068-0.041-0.149-0.064-0.236-0.064-0.127 0-0.242 0.051-0.326 0.133l0-0c-0.062 0.054-0.143 0.086-0.232 0.086-0.139 0-0.26-0.080-0.317-0.197l-0.001-0.002c-0.020-0.037-0.056-0.064-0.098-0.070l-0.001-0c-0.058-0.020-0.125-0.032-0.194-0.032-0.1 0-0.194 0.024-0.276 0.067l0.003-0.002c-0.206 0.096-0.746-0.099-0.77-0.301-0.022-0.144-0.134-0.257-0.276-0.28l-0.002-0c-0.049-0.025-0.107-0.040-0.168-0.040-0.133 0-0.25 0.070-0.317 0.175l-0.001 0.002c-0.115 0.173-0.291 0.363-0.112 0.627 0.181 0.221 0.379 0.417 0.595 0.59l0.008 0.006c0.505 0.486 1.158 0.575 1.791 0.729 0.226 0.055 0.455 0.096 0.677 0.165 0.685 0.213 1.337 0.532 2.058 0.626 0.396 0.068 0.852 0.106 1.317 0.106 0.104 0 0.207-0.002 0.31-0.006l-0.015 0c0.128-0.010 0.278-0.016 0.428-0.016 0.228 0 0.452 0.013 0.673 0.039l-0.027-0.003c0.494 0.076 1.063 0.12 1.643 0.12 0.1 0 0.2-0.001 0.299-0.004l-0.015 0c0.582-0.028 1.163-0.017 1.743-0.014 0.303 0.001 0.612-0.013 0.92 0.018 0.163 0.019 0.351 0.030 0.542 0.030 0.221 0 0.439-0.015 0.652-0.043l-0.025 0.003c0.306-0.042 0.615-0.093 0.922-0.108 0.441-0.023 0.88-0.072 1.317-0.123 0.307-0.036 0.622-0.021 0.92-0.085 0.652-0.141 1.314-0.186 1.895-0.26zM1.063 23.826c0.102 0.167 0.216 0.311 0.345 0.441l-0-0c0.403 0.541 0.902 0.986 1.475 1.319l0.023 0.012c0.274 0.184 0.589 0.347 0.922 0.473l0.032 0.011c0.45 0.134 0.917 0.201 1.361 0.372 0.221 0.094 0.481 0.175 0.75 0.229l0.026 0.004c0.566 0.093 1.133 0.185 1.704 0.251 0.96 0.11 1.92 0.236 2.871 0.405 0.643 0.119 1.383 0.187 2.139 0.187 0.035 0 0.069-0 0.104-0l-0.005 0c0.706-0.006 1.396-0.051 2.073-0.135l-0.087 0.009c0.827-0.097 1.665-0.094 2.487-0.249 0.406-0.076 0.813-0.148 1.213-0.254 0.351-0.093 0.687-0.236 1.035-0.33 0.675-0.17 1.246-0.362 1.797-0.593l-0.083 0.031c0.653-0.28 1.216-0.613 1.73-1.009l-0.018 0.014c0.319-0.196 0.577-0.463 0.756-0.78l0.006-0.011c0.023-0.042 0.037-0.092 0.037-0.145 0-0.071-0.024-0.136-0.065-0.187l0 0.001c-0.169-0.126-0.212 0.076-0.246 0.17-0.042 0.155-0.182 0.267-0.347 0.267-0.027 0-0.052-0.003-0.077-0.008l0.002 0c-0.048-0.012-0.103-0.019-0.159-0.019-0.171 0-0.327 0.065-0.444 0.171l0.001-0c-0.036 0.033-0.084 0.054-0.137 0.054-0.070 0-0.132-0.036-0.168-0.090l-0-0.001c-0.248-0.259-0.261-0.238-0.566-0.059-0.148 0.087-0.326 0.225-0.52 0.098-0.048-0.035-0.109-0.056-0.175-0.056-0.081 0-0.154 0.032-0.208 0.084l0-0c-0.123 0.106-0.277 0.18-0.447 0.205l-0.005 0.001c-0.241 0.027-0.462 0.087-0.667 0.174l0.015-0.006c-0.303 0.109-0.61 0.23-0.889-0.072-0.029-0.022-0.066-0.035-0.105-0.035-0.047 0-0.090 0.018-0.122 0.049l0-0c-0.070 0.082-0.174 0.134-0.29 0.134-0.076 0-0.147-0.023-0.207-0.061l0.001 0.001c-0.029-0.018-0.065-0.029-0.103-0.029-0.078 0-0.145 0.045-0.177 0.111l-0 0.001c-0.062 0.13-0.147 0.123-0.25 0.054-0.084-0.056-0.186-0.106-0.247 0.010-0.065 0.116-0.188 0.194-0.328 0.194-0.050 0-0.098-0.010-0.142-0.028l0.003 0.001c-0.055-0.018-0.118-0.029-0.183-0.029-0.189 0-0.357 0.089-0.465 0.227l-0.001 0.001c-0.053 0.087-0.147 0.144-0.254 0.144-0.057 0-0.109-0.016-0.154-0.043l0.001 0.001c-0.202-0.105-0.479-0.097-0.57-0.38-0.037-0.064-0.101-0.109-0.177-0.12l-0.001-0c-0.064-0.013-0.137-0.021-0.213-0.021-0.208 0-0.402 0.057-0.568 0.157l0.005-0.003c-0.216 0.099-0.405 0.286-0.666 0.113-0.008-0.002-0.017-0.002-0.027-0.002-0.028 0-0.055 0.008-0.078 0.021l0.001-0c-0.14 0.055-0.313 0.11-0.49 0.153l-0.028 0.006c-0.017 0.009-0.037 0.014-0.058 0.014-0.056 0-0.104-0.036-0.122-0.087l-0-0.001c-0.065-0.099-0.146-0.201-0.282-0.106-0.297 0.175-0.654 0.278-1.036 0.278-0.009 0-0.018-0-0.027-0h0.001c-0.011 0.003-0.024 0.005-0.038 0.005-0.056 0-0.105-0.029-0.132-0.074l-0-0.001c-0.048-0.141-0.179-0.24-0.334-0.24-0.061 0-0.118 0.015-0.168 0.043l0.002-0.001c-0.081 0.038-0.176 0.060-0.276 0.060-0.043 0-0.085-0.004-0.126-0.012l0.004 0.001c-0.176-0.045-0.377-0.071-0.585-0.071-0.139 0-0.275 0.012-0.407 0.034l0.014-0.002c-0.038 0.014-0.081 0.022-0.126 0.022-0.101 0-0.193-0.040-0.261-0.104l0 0c-0.048-0.079-0.133-0.131-0.231-0.131-0.054 0-0.104 0.016-0.146 0.043l0.001-0.001c-0.327 0.102-0.722 0.19-1.127 0.247l-0.041 0.005c-0.009 0.002-0.020 0.003-0.031 0.003-0.074 0-0.138-0.044-0.167-0.107l-0-0.001c-0.155-0.174-0.379-0.283-0.63-0.283-0.104 0-0.204 0.019-0.296 0.054l0.006-0.002c-0.152 0.114-0.341 0.185-0.546 0.193l-0.002 0c-0.201-0.026-0.258-0.121-0.165-0.294 0.1-0.185 0.078-0.229-0.133-0.223-0.359 0.012-0.718-0.040-1.077 0.003-0.013 0.003-0.028 0.005-0.044 0.005-0.047 0-0.090-0.015-0.124-0.041l0.001 0c-0.043-0.031-0.097-0.049-0.155-0.049-0.084 0-0.16 0.039-0.209 0.099l-0 0c-0.142 0.090-0.182-0.223-0.352-0.115-0.020 0.009-0.043 0.015-0.067 0.015-0.007 0-0.013-0-0.020-0.001l0.001 0c-0.263-0.010-0.535 0.034-0.691-0.278-0.070-0.128-0.204-0.213-0.358-0.213-0.062 0-0.121 0.014-0.173 0.039l0.002-0.001c-0.041 0.018-0.089 0.029-0.139 0.029-0.034 0-0.067-0.005-0.097-0.014l0.002 0.001c-0.213-0.048-0.395-0.158-0.531-0.309l-0.001-0.001c-0.042-0.032-0.096-0.052-0.155-0.052-0.037 0-0.071 0.008-0.103 0.021l0.002-0.001zM22.77 12.851c-0.138-0.189-0.111-0.263 0.111-0.315 0.184-0.043 0.369-0.080 0.55-0.132 0.024-0.007 0.154 0.003 0.076-0.1-0.093-0.122-0.008-0.176 0.073-0.249 0.186-0.12 0.403-0.214 0.634-0.27l0.015-0.003c-0.075-0.065-0.193-0.067-0.181-0.187 0.012-0.132 0.143-0.104 0.204-0.163 0.121-0.117 0.432-0.017 0.382-0.345 0.057-0.081 0.147-0.136 0.25-0.146l0.001-0c0.116-0.025 0.219-0.071 0.309-0.134l-0.003 0.002c-0.039-0.038-0.092-0.062-0.151-0.062-0.022 0-0.043 0.003-0.062 0.009l0.002-0c-0.006 0.001-0.013 0.002-0.021 0.002-0.063 0-0.116-0.043-0.131-0.102l-0-0.001c0.011-0.058 0.052-0.105 0.105-0.123l0.001-0c0.081-0.015 0.151-0.058 0.2-0.118l0-0.001c-0.16-0.050-0.149-0.15-0.039-0.297-0.036 0.018-0.078 0.028-0.123 0.028-0.086 0-0.163-0.038-0.215-0.098l-0-0c-0.056-0.081 0.064-0.129 0.095-0.204-0.051-0.018-0.109-0.029-0.17-0.029-0.036 0-0.071 0.004-0.105 0.011l0.003-0.001c-0.166 0.033-0.378 0.118-0.5-0.020-0.049-0.065-0.126-0.107-0.213-0.107-0.016 0-0.032 0.001-0.047 0.004l0.002-0c-0.027 0.009-0.059 0.014-0.092 0.014-0.106 0-0.2-0.052-0.258-0.133l-0.001-0.001c-0.045-0.075-0.1-0.019-0.152 0.003-0.168 0.068-0.334 0.144-0.507 0.195-0.044 0.022-0.096 0.034-0.151 0.034-0.061 0-0.119-0.016-0.169-0.044l0.002 0.001c-0.113-0.083 0.035-0.176 0.009-0.276-0.332 0.131-0.619 0.287-0.882 0.475l0.013-0.008c-0.041 0.044-0.1 0.072-0.165 0.072-0.042 0-0.082-0.012-0.116-0.032l0.001 0.001c-0.033-0.031-0.077-0.050-0.125-0.050-0.050 0-0.095 0.020-0.128 0.052l0-0c-0.116 0.074-0.241 0.136-0.364 0.198-0.050 0.053-0.121 0.086-0.199 0.086-0.029 0-0.056-0.004-0.082-0.012l0.002 0.001c-0.124-0.066-0.045-0.182-0.065-0.275-0.091 0.030-0.169 0.082-0.228 0.15l-0 0.001c-0.171 0.147-0.347 0.288-0.512 0.441-0.033 0.036-0.079 0.058-0.131 0.058-0.040 0-0.076-0.013-0.106-0.035l0 0c-0.11-0.061-0.035-0.141-0.029-0.213 0.025-0.047 0.040-0.104 0.040-0.164 0-0.013-0.001-0.026-0.002-0.039l0 0.002c-0.093 0.051-0.17 0.12-0.231 0.202l-0.001 0.002q-0.253 0.307-0.522 0.599c-0.037 0.042-0.092 0.069-0.152 0.069-0.022 0-0.043-0.003-0.062-0.010l0.001 0c-0.122-0.029-0.025-0.127-0.115-0.202-0.099 0.124-0.192 0.255-0.3 0.373-0.073 0.079-0.186 0.188-0.281 0.112-0.198-0.159-0.274 0.001-0.378 0.104-0.121 0.107-0.23 0.222-0.33 0.344l-0.004 0.005c-0.21 0.292-0.472 0.568-0.232 0.984 0.071 0.161 0.117 0.348 0.13 0.545l0 0.005c0.011 0.081 0.017 0.174 0.017 0.268 0 0.197-0.027 0.387-0.079 0.567l0.004-0.015c-0.023 0.097-0.008 0.12 0.081 0.116q0.486-0.022 0.973-0.045c0.047-0.002 0.099 0.014 0.071-0.079-0.051-0.17 0.078-0.16 0.181-0.145 0.199 0.029 0.397 0.070 0.603 0.107-0.055-0.223-0.007-0.264 0.219-0.252 0.299 0.050 0.653 0.085 1.012 0.096l0.012 0c0.049-0.004 0.115 0.013 0.134-0.050 0-0.002 0-0.004 0-0.006 0-0.051-0.034-0.093-0.080-0.106l-0.001-0c-0.070-0.039-0.145-0.078-0.107-0.161 0.034-0.049 0.090-0.081 0.154-0.081 0.014 0 0.029 0.002 0.042 0.005l-0.001-0c0.18 0.018 0.36 0.056 0.54 0.066 0.063 0.013 0.135 0.020 0.209 0.020 0.082 0 0.162-0.009 0.239-0.027l-0.007 0.001c0.056-0.020 0.107-0.045 0.029-0.113-0.061-0.053-0.172-0.104-0.102-0.21 0.041-0.039 0.096-0.064 0.157-0.064 0.038 0 0.073 0.009 0.105 0.026l-0.001-0.001c0.088 0.027 0.19 0.042 0.295 0.042 0.191 0 0.37-0.051 0.524-0.14l-0.005 0.003c-0.078-0.059-0.194-0.080-0.171-0.189 0.025-0.12 0.139-0.084 0.22-0.090 0.183-0.013 0.366-0.018 0.556-0.027zM19.904 4.971c-0.159 0.204-0.347 0.375-0.56 0.513l-0.009 0.005c-0.097 0.047-0.177 0.117-0.233 0.205l-0.001 0.002c-0.097 0.146-0.181 0.349-0.398 0.33-0.007-0.001-0.015-0.001-0.023-0.001-0.081 0-0.151 0.048-0.182 0.118l-0 0.001c-0.096 0.138-0.173 0.288-0.273 0.423-0.091 0.124-0.205 0.334-0.314 0.318-0.243-0.036-0.223 0.131-0.264 0.246-0.067 0.113-0.128 0.244-0.174 0.382l-0.004 0.014c-0.008 0.050-0.051 0.087-0.102 0.087-0.021 0-0.040-0.006-0.056-0.016l0 0c-0.144-0.098-0.15 0.013-0.186 0.101-0.063 0.156-0.127 0.311-0.2 0.462-0.033 0.068-0.075 0.163-0.179 0.098-0.149-0.093-0.175-0.012-0.221 0.114-0.023 0.082-0.038 0.178-0.040 0.276l-0 0.002c-0.093 0.335-0.199 0.621-0.326 0.895l0.015-0.035c-0.041 0.164-0.070 0.357-0.080 0.554l-0 0.008c-0.008 0.078-0.026 0.15-0.108 0.117-0.21-0.084-0.199 0.070-0.189 0.178 0.028 0.3-0.052 0.607 0.073 0.902 0.017 0.036 0.026 0.077 0.026 0.121 0 0.066-0.021 0.126-0.058 0.175l0.001-0.001c-0.026 0.024-0.042 0.058-0.042 0.096 0 0.057 0.036 0.105 0.087 0.124l0.001 0c0.165 0.081 0.308 0.178 0.434 0.292l-0.002-0.001c0.219 0.146 0.224 0.143 0.39-0.082 0.285-0.389 0.608-0.725 0.969-1.016l0.010-0.008c0.068-0.054 0.16-0.112 0.202-0.030 0.064 0.126 0.113 0.064 0.156 0.011 0.189-0.228 0.464-0.355 0.659-0.576 0.097-0.109 0.191-0.119 0.224 0.076 0.362-0.447 0.883-0.717 1.098-1.255-0.329-0.056-0.383-0.156-0.233-0.456 0.057-0.104 0.118-0.193 0.186-0.276l-0.003 0.003c0.038-0.026 0.063-0.069 0.063-0.118 0-0.020-0.004-0.040-0.012-0.057l0 0.001c-0.075-0.112 0.005-0.175 0.063-0.248 0.167-0.187 0.306-0.403 0.408-0.639l0.006-0.015c-0.014-0.003-0.029-0.004-0.046-0.004-0.048 0-0.094 0.013-0.133 0.037l0.001-0.001c-0.023 0.009-0.049 0.014-0.076 0.014-0.064 0-0.122-0.029-0.161-0.074l-0-0c-0.016-0.028-0.026-0.061-0.026-0.096 0-0.057 0.025-0.108 0.065-0.143l0-0c0.065-0.073 0.126-0.152 0.182-0.236l0.005-0.008c0.040-0.073 0.184-0.168-0.014-0.243-0.022-0.018-0.036-0.044-0.036-0.074 0-0.025 0.010-0.048 0.025-0.065l-0 0c0.060-0.063 0.096-0.148 0.096-0.242 0-0.059-0.015-0.115-0.041-0.165l0.001 0.002c-0.053-0.099 0.090-0.171 0.155-0.244 0.125-0.14 0.2-0.275 0.037-0.435-0.041-0.035-0.068-0.087-0.068-0.145 0-0.020 0.003-0.040 0.009-0.058l-0 0.001c0.024-0.034 0.038-0.076 0.038-0.121 0-0.061-0.026-0.117-0.068-0.155l-0-0c-0.093 0.010-0.172 0.061-0.219 0.134l-0.001 0.001c-0.18 0.132-0.251 0.113-0.326-0.097zM6.758 24.168c0.096 0.065 0.159 0.173 0.159 0.296 0 0.012-0.001 0.023-0.002 0.035l0-0.001c0.001 0.061-0.035 0.148 0.089 0.164 0.036 0.021 0.080 0.033 0.127 0.033 0.059 0 0.114-0.020 0.157-0.054l-0.001 0c0.093-0.096 0.211-0.168 0.343-0.205l0.005-0.001c0.038-0.018 0.104-0.053 0.102 0.009-0.004 0.144 0.093 0.081 0.145 0.079 0.245-0.005 0.49-0.020 0.748-0.032-0.024 0.061-0.082 0.104-0.15 0.104-0.017 0-0.034-0.003-0.049-0.008l0.001 0c-0.273 0.030-0.548 0.001-0.822 0.034-0 0-0.001 0-0.001 0-0.099 0-0.178 0.080-0.178 0.178 0 0.009 0.001 0.017 0.002 0.025l-0-0.001c0.004 0.065 0.040 0.209 0.187 0.125 0.045-0.025 0.072 0.008 0.069 0.050-0.008 0.137 0.093 0.123 0.162 0.1 0.33-0.109 0.748-0.072 0.878-0.524 0.029-0.101 0.165-0.144 0.207-0.072 0.083 0.143 0.157 0.107 0.27 0.064 0.012-0.003 0.026-0.005 0.040-0.005 0.055 0 0.104 0.026 0.135 0.067l0 0c0.042 0.060-0.046 0.079-0.062 0.122-0.042 0.077-0.123 0.128-0.215 0.128-0.012 0-0.024-0.001-0.036-0.003l0.001 0c-0.004-0-0.008-0.001-0.012-0.001-0.057 0-0.104 0.038-0.119 0.089l-0 0.001c0.010 0.060 0.050 0.108 0.105 0.129l0.001 0c0.025 0.014 0.055 0.023 0.087 0.023 0.028 0 0.054-0.006 0.077-0.017l-0.001 0c0.149-0.040 0.32-0.062 0.497-0.062 0.021 0 0.041 0 0.062 0.001l-0.003-0c0.302-0.010 0.599 0.103 0.9 0.022 0.055-0.015 0.118-0.023 0.182-0.023 0.197 0 0.376 0.079 0.507 0.208l-0-0c0.075 0.050 0.168 0.080 0.268 0.080 0.206 0 0.382-0.127 0.454-0.308l0.001-0.003c0.020-0.075 0.033-0.156 0.125-0.152 0.023-0.008 0.049-0.013 0.076-0.013 0.068 0 0.128 0.030 0.17 0.077l0 0c0.104 0.149 0.274 0.245 0.466 0.245 0.117 0 0.226-0.036 0.316-0.096l-0.002 0.001c0.031-0.016 0.068-0.025 0.107-0.025 0.027 0 0.054 0.005 0.078 0.013l-0.002-0c0.076 0.023 0.162 0.036 0.252 0.036 0.148 0 0.288-0.036 0.412-0.1l-0.005 0.002c0.123-0.070 0.267-0.135 0.417-0.187l0.019-0.006c-0.029-0.004-0.062-0.007-0.096-0.007-0.019 0-0.038 0.001-0.057 0.002l0.002-0c-0.052 0.002-0.112 0.009-0.128-0.054-0.001-0.005-0.001-0.011-0.001-0.017 0-0.032 0.012-0.061 0.031-0.083l-0 0c0.037-0.041 0.085-0.102 0.148-0.049 0.181 0.149 0.409 0.247 0.658 0.27l0.005 0c0.045 0.010 0.081 0.039 0.1 0.079l0 0.001c0.057 0.144 0.174 0.254 0.32 0.299l0.004 0.001c0.28 0.141 0.305 0.159 0.515-0.083 0.078-0.109 0.204-0.18 0.347-0.18 0.040 0 0.078 0.006 0.115 0.016l-0.003-0.001c0.219 0.044 0.483 0.126 0.629-0.181 0.034-0.051 0.092-0.083 0.157-0.083 0.045 0 0.087 0.016 0.12 0.043l-0-0c0.025 0.024 0.059 0.038 0.096 0.038 0.054 0 0.1-0.030 0.123-0.075l0-0.001c0.043-0.061 0.113-0.101 0.193-0.101 0.060 0 0.115 0.023 0.157 0.060l-0-0c0.045 0.043 0.106 0.069 0.174 0.069 0.081 0 0.153-0.038 0.199-0.097l0-0.001c0.18-0.245 0.329-0.14 0.49 0.001 0.034 0.054 0.094 0.090 0.162 0.090 0.032 0 0.062-0.008 0.089-0.022l-0.001 0c0.049-0.035 0.11-0.056 0.176-0.056 0.031 0 0.061 0.005 0.089 0.013l-0.002-0.001c0.024 0.005 0.051 0.007 0.078 0.007 0.096 0 0.184-0.032 0.254-0.087l-0.001 0.001c0.059-0.049 0.135-0.079 0.218-0.079 0.009 0 0.017 0 0.026 0.001l-0.001-0c0.023 0.002 0.050 0.004 0.078 0.004 0.22 0 0.42-0.086 0.568-0.226l-0 0c0.078-0.079 0.187-0.128 0.307-0.128 0.064 0 0.125 0.014 0.18 0.039l-0.003-0.001c0.054 0.020 0.116 0.031 0.18 0.031 0.116 0 0.223-0.037 0.311-0.1l-0.002 0.001c0.401-0.2 0.389-0.22 0.679 0.064 0.079 0.078 0.143 0.107 0.216 0.012 0.072-0.089 0.182-0.145 0.304-0.145 0.053 0 0.103 0.010 0.148 0.029l-0.003-0.001c0.245 0.048 0.382 0.056 0.483-0.233 0.027-0.13 0.141-0.225 0.277-0.225 0.042 0 0.082 0.009 0.119 0.026l-0.002-0.001c0.094 0.033 0.205 0.017 0.3 0.049 0.141 0.047 0.158-0.023 0.121-0.12-0.016-0.022-0.026-0.050-0.026-0.081 0-0.077 0.062-0.139 0.139-0.139 0 0 0.001 0 0.001 0h-0c0.119-0.033 0.126-0.118 0.057-0.221-0.033-0.037-0.053-0.085-0.053-0.139 0-0.078 0.043-0.146 0.106-0.182l0.001-0.001c0.046-0.038 0.076-0.095 0.076-0.159 0-0.007-0-0.014-0.001-0.021l0 0.001c-0.263 0.058-0.487 0.126-0.704 0.209l0.034-0.011c-0.744 0.223-1.628 0.402-2.536 0.503l-0.070 0.006c-0.204 0.017-0.389 0.043-0.569 0.080l0.030-0.005c-0.413 0.111-0.899 0.193-1.397 0.229l-0.025 0.001c-0.155 0.006-0.311 0.006-0.464 0.025-0.694 0.086-1.387 0.187-2.082 0.266-0.356 0.060-0.782 0.105-1.216 0.124l-0.023 0.001c-0.496-0.001-0.992 0.096-1.49 0.134-0.658 0.051-1.318 0.010-1.976 0.012-0.768 0.003-1.537 0.037-2.305 0.006-0.42-0.017-0.84-0.066-1.259-0.102-0.239-0.030-0.515-0.046-0.795-0.046-0.298 0-0.592 0.019-0.88 0.056l0.034-0.004zM10.39 17.814c0.896-0.091 1.647-0.637 2.023-1.401l0.007-0.015c0.094-0.156 0.149-0.345 0.149-0.546 0-0.196-0.052-0.379-0.143-0.538l0.003 0.005c-0.109-0.201-0.203-0.434-0.27-0.678l-0.005-0.023c-0.078-0.339-0.339-0.601-0.67-0.681l-0.006-0.001c-0.226-0.098-0.488-0.172-0.761-0.21l-0.016-0.002c-0.515 0.011-1.013 0.028-1.451 0.363-0.435 0.346-0.727 0.855-0.784 1.433l-0.001 0.009c-0.016 0.092-0.025 0.197-0.025 0.305 0 0.223 0.040 0.436 0.112 0.633l-0.004-0.013c0.066 0.169 0.15 0.333 0.232 0.494 0.084 0.218 0.217 0.4 0.386 0.541l0.002 0.002c0.285 0.209 0.642 0.334 1.028 0.334 0.069 0 0.137-0.004 0.204-0.012l-0.008 0.001zM16.732 13.486c-0.010-0.136-0.033-0.261-0.066-0.382l0.003 0.014c-0.13-0.541-0.508-0.974-1.005-1.176l-0.011-0.004c-0.311-0.085-0.667-0.133-1.035-0.133-0.141 0-0.28 0.007-0.417 0.021l0.017-0.001c-0.542 0.027-1.023 0.266-1.366 0.634l-0.001 0.001c-0.104 0.139-0.204 0.296-0.292 0.461l-0.010 0.020c-0.16 0.175-0.258 0.409-0.258 0.666 0 0.024 0.001 0.047 0.002 0.071l-0-0.003c0.032 0.295 0.121 0.563 0.256 0.801l-0.005-0.010c0.112 0.197 0.251 0.379 0.347 0.583 0.085 0.216 0.278 0.373 0.51 0.405l0.003 0c0.122 0.017 0.243 0.039 0.363 0.066 0.151 0.032 0.325 0.051 0.503 0.051 0.494 0 0.955-0.143 1.343-0.389l-0.010 0.006c0.249-0.179 0.467-0.361 0.672-0.558l-0.002 0.002c0.395-0.303 0.419-0.722 0.457-1.145zM12.492 21.302c0.105-0.028 0.192-0.059 0.277-0.094l-0.014 0.005c0.096-0.040 0.162-0.134 0.162-0.242 0-0.044-0.011-0.085-0.030-0.122l0.001 0.001c-0.024-0.064-0.084-0.109-0.155-0.109-0.038 0-0.073 0.013-0.1 0.034l0-0c-0.083 0.066-0.297 0.123-0.126 0.312 0.005 0.024 0.009 0.052 0.009 0.081 0 0.048-0.009 0.093-0.025 0.136l0.001-0.003z"></path>
<path d="M24.007 19.161c-0.056-0.094-0.095-0.204-0.11-0.322l-0-0.004c-0.072-0.711-0.303-1.355-0.656-1.915l0.011 0.018c-0.068-0.14-0.197-0.242-0.352-0.272l-0.003-0c-0.004 0.001-0.009 0.001-0.014 0.001-0.041 0-0.076-0.026-0.090-0.063l-0-0.001c0-0.029 0.014-0.054 0.036-0.070l0-0c0.015-0.008 0.033-0.012 0.052-0.012 0.035 0 0.066 0.015 0.087 0.039l0 0c0.171 0.124 0.311 0.278 0.417 0.456l0.004 0.007c0.292 0.46 0.5 1.002 0.588 1.583l0.003 0.023c0.033 0.095 0.052 0.204 0.052 0.317 0 0.076-0.008 0.15-0.025 0.221l0.001-0.007z"></path>
<path d="M20.742 19.422c-0.030 0.053-0.085 0.088-0.149 0.089h-0c-0.636 0.053-1.211 0.14-1.773 0.262l0.090-0.016c-0.009 0.004-0.019 0.007-0.029 0.007-0.028 0-0.052-0.018-0.062-0.042l-0-0c-0.015-0.058 0.055-0.069 0.079-0.076 0.122-0.035 0.262-0.057 0.407-0.059h0.001c0.449-0.014 0.878-0.162 1.325-0.165 0.035-0 0.069 0.002 0.109 0.003z"></path>
<path d="M22.697 17.8c0.134 0.144 0.236 0.32 0.291 0.515l0.002 0.009c0.060 0.203 0.144 0.38 0.25 0.541l-0.005-0.007c0.020 0.041 0.079 0.089 0.008 0.129-0.011 0.005-0.025 0.008-0.039 0.008-0.041 0-0.076-0.024-0.091-0.059l-0-0.001c-0.068-0.122-0.124-0.264-0.159-0.413l-0.002-0.011c-0.089-0.235-0.171-0.474-0.255-0.71z"></path>
<path d="M22.075 18.106c0.051 0.12 0.106 0.276 0.154 0.436l0.009 0.035c0.041 0.169 0.052 0.346 0.081 0.518 0.011 0.061 0.072 0.147-0.024 0.163-0.084 0.014-0.118-0.087-0.114-0.158 0.008-0.178-0.057-0.346-0.064-0.52-0.016-0.168-0.052-0.322-0.104-0.468l0.004 0.013z"></path>
<path d="M1.139 19.058c-0.010-0.022-0.016-0.047-0.016-0.075 0-0.050 0.020-0.095 0.054-0.127l0-0c0.128-0.196 0.22-0.427 0.262-0.675l0.002-0.011c-0-0.001-0-0.002-0-0.003 0-0.042 0.034-0.075 0.075-0.075 0.004 0 0.008 0 0.012 0.001l-0-0c0.065 0.018 0.022 0.067 0.013 0.106-0.064 0.331-0.205 0.621-0.404 0.862l0.003-0.003z"></path>
<path d="M1.931 18.74c-0.141 0.107-0.181 0.322-0.411 0.369 0.064-0.186 0.217-0.325 0.407-0.368l0.004-0.001z"></path>
<path d="M21.494 19.267c-0.061-0.134-0.096-0.291-0.096-0.456 0-0.034 0.001-0.067 0.004-0.1l-0 0.004c0.062 0.129 0.098 0.281 0.098 0.441 0 0.039-0.002 0.078-0.006 0.116l0-0.005z"></path>
<path d="M8.632 23.376c-0.759 0.031-1.48-0.186-2.21-0.345 0.745 0.062 1.464 0.291 2.21 0.345z"></path>
<path d="M22.737 22.302c-0.255 0.161-0.557 0.272-0.881 0.311l-0.010 0.001c0.252-0.12 0.549-0.227 0.857-0.305l0.034-0.007z"></path>
<path d="M22.206 24.622c0.066 0.451-0.284 1.016-0.667 1.026 0.324-0.254 0.56-0.607 0.664-1.014l0.003-0.013z"></path>
<path d="M21.237 25.304c-0.045 0.112-0.095 0.222-0.135 0.336-0.036 0.081-0.1 0.144-0.179 0.179l-0.002 0.001c-0.010 0.005-0.022 0.008-0.035 0.008-0.026 0-0.048-0.013-0.062-0.033l-0-0c-0.011-0.014-0.017-0.032-0.017-0.051 0-0.002 0-0.004 0-0.006l-0 0c0.181-0.109 0.239-0.333 0.429-0.434z"></path>
<path d="M20.526 25.761c-0.048 0.095-0.135 0.165-0.238 0.19l-0.002 0c-0.042 0.010-0.114-0-0.092-0.048 0.060-0.097 0.149-0.171 0.255-0.211l0.004-0.001c0.026-0.014 0.061 0.026 0.074 0.070z"></path>
<path d="M23.487 20.595c-0.11 0.121-0.268 0.197-0.444 0.197-0.004 0-0.008-0-0.012-0h0.001c-0.026-0.005-0.047-0.010-0.068-0.016l0.004 0.001c-0.328 0.004-0.328 0.005-0.323-0.383-0.301 0.27-0.702 0.305-0.963 0.604-0.081 0.093-0.186 0.273-0.358 0.159-0.185-0.123 0.028-0.238 0.039-0.379-0.18-0.012-0.361-0.028-0.542-0.036-0.010-0.003-0.022-0.005-0.034-0.005-0.066 0-0.121 0.053-0.122 0.119v0c-0.002 0.088-0.043 0.059-0.1 0.052-0.115-0.015-0.279 0.149-0.227 0.233 0.058 0.095 0.018 0.123-0.048 0.135-0.011 0.004-0.024 0.006-0.037 0.006-0.061 0-0.11-0.049-0.11-0.11 0-0.003 0-0.005 0-0.008l-0 0c-0.004-0.017-0.007-0.037-0.007-0.058 0-0.072 0.030-0.136 0.079-0.182l0-0c0.291-0.229 0.58-0.446 0.994-0.336 0.151 0.040 0.308 0.050 0.462 0.101 0.019 0.003 0.042 0.004 0.064 0.004 0.148 0 0.279-0.068 0.366-0.173l0.001-0.001c0.16-0.123 0.351-0.215 0.558-0.261l0.009-0.002c0.207-0.061 0.285 0.011 0.224 0.215-0.057 0.19-0.002 0.201 0.142 0.122 0.148-0.081 0.296 0.013 0.449-0.001z"></path>
<path d="M18.129 20.909c0.125-0.006 0.25-0.014 0.375-0.016 0.008-0.001 0.017-0.002 0.026-0.002 0.090 0 0.163 0.072 0.164 0.162v0c-0.001 0.008-0.001 0.016-0.001 0.025 0 0.019 0.002 0.038 0.005 0.056l-0-0.002c0.024 0.007 0.051 0.010 0.079 0.010 0.094 0 0.178-0.042 0.234-0.108l0-0c0.076-0.081 0.306-0.051 0.21-0.264-0.031-0.069-0.050-0.138 0.056-0.134 0.285-0.015 0.548-0.044 0.806-0.085l-0.043 0.006c0.012-0.004 0.026-0.006 0.041-0.006 0.055 0 0.102 0.033 0.123 0.080l0 0.001c0.002 0.010 0.002 0.021 0.002 0.032 0 0.058-0.022 0.111-0.058 0.15l0-0c-0.022 0.038-0.062 0.063-0.109 0.063-0.025 0-0.048-0.007-0.067-0.020l0 0c-0.304-0.28-0.507-0.043-0.701 0.142-0.163 0.139-0.349 0.259-0.549 0.351l-0.015 0.006c-0.030 0.021-0.068 0.033-0.109 0.033-0.052 0-0.098-0.020-0.133-0.053l0 0c-0.078-0.084-0.020-0.142 0.036-0.205s0.012-0.097-0.047-0.1c-0.029-0.008-0.061-0.012-0.095-0.012-0.051 0-0.1 0.010-0.144 0.028l0.003-0.001c-0.146 0.144-0.321 0.019-0.474 0.074-0.013 0.005-0.028 0.008-0.044 0.008-0.062 0-0.113-0.046-0.12-0.106l-0-0.001c0.017-0.056 0.068-0.096 0.129-0.096 0.008 0 0.015 0.001 0.023 0.002l-0.001-0c0.132-0.007 0.265-0.013 0.398-0.019z"></path>
<path d="M0.847 20.227c0.16-0.055 0.351-0.103 0.548-0.135l0.020-0.003c0.164-0.014-0.040 0.11 0.064 0.16l0.2 0.010c-0.035 0.072-0.059 0.131-0.092 0.184s-0.084 0.104 0.029 0.115c0.002-0 0.004-0 0.006-0 0.036 0 0.064 0.029 0.064 0.064 0 0.008-0.002 0.016-0.004 0.023l0-0c-0.009 0.047-0.052 0.042-0.087 0.047-0.019 0.005-0.042 0.008-0.064 0.008-0.112 0-0.209-0.067-0.253-0.163l-0.001-0.002c-0.059-0.18-0.226-0.308-0.422-0.308-0.003 0-0.006 0-0.010 0h0z"></path>
<path d="M16.82 21.144c0.078-0.119-0.056-0.116-0.113-0.168-0.056-0.050-0.184-0.079-0.081-0.198 0.021-0.041 0.063-0.068 0.111-0.068 0.046 0 0.085 0.024 0.107 0.061l0 0.001c0.034 0.036 0.081 0.058 0.134 0.058 0.038 0 0.074-0.012 0.104-0.032l-0.001 0c0.071-0.027 0.168-0.13 0.231-0.021 0.061 0.106-0.068 0.131-0.127 0.187-0.101 0.059-0.171 0.161-0.186 0.28l-0 0.002c0.003 0.070-0.005 0.152-0.086 0.15-0.1-0.003-0.083-0.101-0.090-0.171-0.002-0.022-0.002-0.044-0.004-0.081z"></path>
<path d="M24.691 20.010c-0.139 0.152-0.322 0.262-0.529 0.309l-0.007 0.001c-0.020 0.006-0.043 0.010-0.067 0.010-0.125 0-0.227-0.102-0.227-0.227 0-0.011 0.001-0.021 0.002-0.031l-0 0.001c0.019-0.063 0.076-0.108 0.144-0.108 0.009 0 0.017 0.001 0.026 0.002l-0.001-0c0.065-0.007 0.105 0.021 0.090 0.086-0.014 0.062-0.031 0.12 0.053 0.129 0.060-0.001 0.111-0.039 0.131-0.093l0-0.001c0.125-0.201 0.23-0.219 0.384-0.078z"></path>
<path d="M4.63 21.221c0.070 0.026 0.152 0.041 0.237 0.041 0.051 0 0.1-0.005 0.148-0.016l-0.005 0.001c0.038-0.006 0.095-0.026 0.106 0.039 0 0.002 0 0.004 0 0.006 0 0.037-0.028 0.067-0.063 0.071l-0 0c-0.078 0.021-0.167 0.032-0.258 0.032-0.101 0-0.199-0.014-0.292-0.041l0.007 0.002c-0.065-0.030-0.109-0.095-0.109-0.17 0-0.017 0.002-0.033 0.006-0.048l-0 0.001c-0.001-0.107 0.074-0.085 0.135-0.096 0.182-0.033 0.364-0.069 0.567-0.108-0.124 0.173-0.341 0.131-0.479 0.286z"></path>
<path d="M13.526 21.6c0.041-0.269 0.271-0.473 0.548-0.473 0.050 0 0.099 0.007 0.145 0.019l-0.004-0.001c0.092 0.041 0.144 0.157 0.245 0.209 0.028 0.015-0.018 0.063-0.051 0.073-0.086 0.026-0.209 0.117-0.254 0.007-0.094-0.226-0.243-0.118-0.385-0.106-0.167 0.015-0.102 0.218-0.243 0.27z"></path>
<path d="M8.358 21.444c-0.036 0.005-0.078 0.008-0.12 0.008-0.019 0-0.039-0.001-0.058-0.002l0.003 0c-0.14-0.021-0.159-0.112-0.104-0.223 0.030-0.043 0.064-0.080 0.103-0.112l0.001-0.001c0.049-0.052 0.075-0.173 0.17-0.113 0.108 0.067-0.021 0.119-0.046 0.174-0.051 0.115-0.012 0.154 0.098 0.132 0.098-0.019 0.194-0.055 0.29-0.083 0.008-0.003 0.017-0.005 0.027-0.005 0.029 0 0.054 0.016 0.066 0.040l0 0c0.032 0.059-0.016 0.072-0.055 0.092-0.102 0.059-0.225 0.093-0.356 0.093-0.007 0-0.014-0-0.020-0l0.001 0z"></path>
<path d="M9.85 21.526c-0.017 0.098-0.144 0.088-0.176 0.178 0.069 0.085 0.132-0.035 0.187-0.008 0.053 0.001 0.097 0.035 0.114 0.082l0 0.001c0.007 0.075-0.046 0.079-0.099 0.083-0.031 0.008-0.067 0.013-0.104 0.013-0.116 0-0.221-0.046-0.298-0.121l0 0c-0.015-0.012-0.025-0.030-0.025-0.050 0-0.018 0.007-0.033 0.019-0.045v0c0.072-0.086 0.178-0.14 0.298-0.14 0.031 0 0.062 0.004 0.091 0.011l-0.003-0.001z"></path>
<path d="M14.341 21.664c-0.040 0.164-0.173 0.136-0.278 0.144-0.106-0.011-0.198-0.066-0.257-0.147l-0.001-0.001c-0.010-0.009-0.016-0.022-0.016-0.037 0-0.017 0.008-0.031 0.020-0.041l0-0c0.017-0.024 0.045-0.040 0.076-0.040 0.023 0 0.045 0.009 0.061 0.023l-0-0c0.074 0.070 0.175 0.113 0.285 0.113 0.039 0 0.076-0.005 0.111-0.015l-0.003 0.001z"></path>
<path d="M17.105 21.591c-0.169 0.104-0.271 0.116-0.364 0.008-0.030-0.035-0.058-0.093-0.018-0.114 0.141-0.073 0.209 0.085 0.382 0.106z"></path>
<path d="M19.79 12.323c0.232 0.166 0.514 0.278 0.818 0.314l0.008 0.001c0.058 0.006 0.144-0.002 0.136 0.065-0.008 0.079-0.092 0.068-0.163 0.058-0.256-0.031-0.489-0.098-0.705-0.196l0.015 0.006c-0.103-0.040-0.223-0.063-0.348-0.063-0.176 0-0.341 0.045-0.484 0.125l0.005-0.003c-0.288 0.118-0.567 0.258-0.85 0.405 0.294 0.014 0.58 0.075 0.867 0.108 0.305 0.035 0.564 0.197 0.874 0.243-0.044 0.047-0.105 0.076-0.174 0.076-0.047 0-0.091-0.014-0.128-0.037l0.001 0.001c-0.33-0.046-0.652-0.141-0.985-0.184-0.112-0.015-0.219-0.003-0.327-0.009-0.019 0.007-0.041 0.011-0.063 0.011-0.039 0-0.075-0.011-0.106-0.031l0.001 0c-0.134-0.191-0.256-0.055-0.38 0.006-0.182 0.089-0.363 0.182-0.547 0.269-0.024 0.019-0.055 0.030-0.088 0.030-0.053 0-0.099-0.029-0.124-0.072l-0-0.001c-0.026-0.069 0.059-0.091 0.124-0.118 1.164-0.485 2.323-0.985 3.492-1.46 0.329-0.162 0.721-0.314 1.127-0.433l0.054-0.014c0.071-0.016 0.134-0.049 0.148 0.041 0.010 0.062-0.052 0.092-0.12 0.1-0.743 0.088-1.359 0.509-2.080 0.762z"></path>
<path d="M19.429 12.139c0.17-0.256 0.359-0.478 0.569-0.677l0.002-0.002c0.172-0.188 0.357-0.366 0.539-0.545 0.035-0.035 0.070-0.122 0.133-0.057 0.017 0.020 0.028 0.046 0.028 0.074 0 0.042-0.024 0.079-0.058 0.098l-0.001 0c-0.125 0.107-0.238 0.214-0.346 0.327l-0.002 0.002c-0.3 0.247-0.517 0.582-0.864 0.779z"></path>
<path d="M21.374 11.414c0.273-0.332 0.564-0.628 0.881-0.896l0.010-0.008c0.015-0.021 0.039-0.034 0.066-0.034 0.019 0 0.037 0.006 0.050 0.017l-0-0c0.016 0.015 0.026 0.037 0.026 0.060 0 0.031-0.017 0.058-0.042 0.073l-0 0q-0.494 0.396-0.99 0.788z"></path>
<path d="M21.748 11.738c0.268 0.019 0.506 0.134 0.682 0.311l0 0c0.017 0.008 0.029 0.025 0.029 0.044 0 0.011-0.003 0.021-0.009 0.029l0-0c-0.013 0.021-0.035 0.034-0.061 0.034-0.013 0-0.025-0.003-0.035-0.009l0 0c-0.1-0.053-0.203-0.104-0.299-0.164-0.086-0.053-0.188-0.090-0.297-0.105l-0.004-0c-0.058-0.009-0.156 0.049-0.164-0.044-0.008-0.096 0.103-0.078 0.157-0.095z"></path>
<path d="M18.235 12.582c0.239-0.368 0.491-0.689 0.768-0.986l-0.004 0.004 0.053 0.045z"></path>
<path d="M19.084 11.526c0.16-0.219 0.32-0.439 0.481-0.657 0.020-0.028 0.051-0.063 0.089-0.027 0.012 0.013 0.020 0.030 0.020 0.049 0 0.020-0.009 0.039-0.022 0.051l-0 0c-0.188 0.196-0.378 0.39-0.568 0.585z"></path>
<path d="M18.738 8.052c0.178-0.212 0.379-0.396 0.602-0.55l0.010-0.007c0.061-0.051 0.14-0.081 0.226-0.081 0.006 0 0.011 0 0.017 0l-0.001-0c0.046 0.001 0.084 0.034 0.092 0.078l0 0.001c0 0.002 0 0.004 0 0.007 0 0.044-0.032 0.081-0.075 0.088l-0 0c-0.476 0.137-0.751 0.507-1.020 0.882-0.001 0.008-0.003 0.015-0.005 0.022l0-0.001c-0.473 0.266-0.46 0.839-0.765 1.215 0.347-0.254 0.615-0.597 0.994-0.813-0.232 0.243-0.458 0.493-0.698 0.728-0.419 0.423-0.757 0.927-0.989 1.486l-0.011 0.031c-0.031 0.123-0.11 0.224-0.216 0.283l-0.002 0.001c0.156-0.472 0.42-0.86 0.585-1.291 0.195-0.508 0.473-0.976 0.714-1.461 0.002-0.017 0.003-0.036 0.003-0.056 0-0.070-0.012-0.136-0.035-0.198l0.001 0.004c0.074-0.231 0.146-0.521 0.199-0.818l0.007-0.045c0.008-0.050 0.051-0.088 0.103-0.088 0.008 0 0.017 0.001 0.025 0.003l-0.001-0c-0.098 0.27-0.081 0.549-0.173 0.812 0.11-0.111 0.201-0.242 0.265-0.387l0.003-0.008c0.267-0.421 0.241-0.932 0.432-1.376 0.008-0.038 0.019-0.072 0.034-0.104l-0.001 0.003c0.029-0.037 0.062-0.107 0.117-0.072 0.044 0.028 0.017 0.077-0.012 0.129-0.048 0.093-0.088 0.2-0.114 0.313l-0.002 0.009c-0.014 0.050-0.056 0.114 0.081 0.083 0.113-0.026 0.028 0.102 0.006 0.134-0.134 0.228-0.262 0.495-0.369 0.773l-0.013 0.038c-0.030 0.033-0.048 0.077-0.048 0.125 0 0.041 0.013 0.078 0.035 0.109l-0-0.001z"></path>
<path d="M17.557 8.42c0.177 0.159 0.075 0.351 0.093 0.513 0.033 0.295-0.157 0.557-0.163 0.85 0 0 0 0.001 0 0.002 0 0.038-0.030 0.069-0.068 0.070h-0c-0.074-0.011-0.060-0.082-0.050-0.124 0.067-0.299 0.111-0.601 0.151-0.904-0.004-0.033-0.006-0.070-0.006-0.109 0-0.106 0.016-0.208 0.045-0.304l-0.002 0.007z"></path>
<path d="M22.11 23.341c0.011-0.002 0.023-0.003 0.035-0.003 0.080 0 0.148 0.051 0.173 0.122l0 0.001c0.018 0.085 0.092 0.149 0.182 0.149 0.048 0 0.093-0.019 0.126-0.049l-0 0c0.041-0.018 0.089-0.029 0.139-0.029 0.004 0 0.007 0 0.011 0h-0.001c0.017 0.003 0.036 0.005 0.055 0.005 0.129 0 0.24-0.080 0.285-0.194l0.001-0.002c0.047-0.095 0.143-0.159 0.253-0.159 0.061 0 0.117 0.019 0.163 0.052l-0.001-0.001c0.051 0.048 0.12 0.077 0.195 0.077 0.001 0 0.001 0 0.002 0h-0c0.009-0.004 0.021-0.007 0.032-0.007 0.043 0 0.078 0.034 0.079 0.077v0c0.006 0.015 0.009 0.033 0.009 0.052 0 0.051-0.025 0.096-0.064 0.124l-0 0c-0.022 0.016-0.050 0.025-0.079 0.025-0.032 0-0.062-0.011-0.085-0.030l0 0c-0.030-0.030-0.057-0.064-0.079-0.101l-0.001-0.002c-0.026-0.050-0.078-0.083-0.137-0.083-0.019 0-0.037 0.003-0.054 0.010l0.001-0c-0.058 0.020-0.098 0.074-0.098 0.137 0 0.014 0.002 0.028 0.006 0.041l-0-0.001c0.041 0.173-0.006 0.207-0.176 0.16-0.049-0.013-0.106-0.020-0.164-0.020-0.089 0-0.174 0.017-0.252 0.047l0.005-0.002c-0.047 0.027-0.103 0.042-0.163 0.042-0.118 0-0.222-0.061-0.282-0.153l-0.001-0.001c-0.076-0.111-0.176-0.103-0.232 0.024-0.026 0.059-0.012 0.134-0.103 0.142-0.006 0.001-0.012 0.002-0.019 0.002-0.040 0-0.074-0.025-0.089-0.060l-0-0.001c-0.014-0.027-0.022-0.060-0.022-0.094 0-0.051 0.018-0.097 0.048-0.133l-0 0c0.070-0.095 0.178-0.159 0.302-0.167l0.001-0z"></path>
<path d="M15.966 24.288c0.152 0.072 0.391-0.065 0.552 0.136 0.018 0.009 0.040 0.014 0.062 0.015h0c0.078 0.023 0.206-0.062 0.227 0.077-0.091 0.116-0.232 0.19-0.39 0.19-0.001 0-0.003 0-0.004-0h0c-0.102-0.093-0.262-0.064-0.347-0.192-0.028-0.032-0.069-0.052-0.115-0.052-0.033 0-0.063 0.010-0.088 0.028l0.001-0c-0.078 0.040-0.184 0.062-0.205-0.032-0.024-0.106 0.072-0.162 0.182-0.164 0.029-0.001 0.059-0.003 0.126-0.006z"></path>
<path d="M12.638 24.775c0.22-0.155 0.493-0.247 0.788-0.247 0.261 0 0.505 0.072 0.712 0.198l-0.006-0.003c-0.056 0.036-0.123 0.057-0.196 0.057-0.098 0-0.187-0.039-0.253-0.101l0 0c-0.187-0.108-0.378 0.008-0.568 0.030-0.156 0.018-0.296 0.164-0.477 0.067z"></path>
<path d="M18.129 24.486c-0.276 0.076-0.381-0.157-0.557-0.237-0.028-0.013 0.001-0.113 0.070-0.122 0.064-0.011 0.138-0.017 0.214-0.017 0.040 0 0.080 0.002 0.12 0.005l-0.005-0c0.052 0.007 0.188 0.015 0.098 0.146-0.065 0.094 0.045 0.060 0.070 0.082 0.039 0.035 0.13 0.025 0.108 0.109-0.021 0.078-0.103 0.023-0.117 0.033z"></path>
<path d="M11.521 24.724c0.007 0.020 0.011 0.044 0.011 0.069 0 0.124-0.101 0.225-0.225 0.225-0.009 0-0.017-0-0.026-0.001l0.001 0c-0.123-0.011-0.219-0.114-0.219-0.239 0-0.004 0-0.007 0-0.011l-0 0c0.052-0.138 0.175-0.237 0.324-0.254l0.002-0c0.072-0.023 0.152 0.071 0.133 0.211z"></path>
<path d="M20.238 23.831c-0.106 0.094-0.291 0.084-0.233 0.281 0.013 0.046-0.049 0.084-0.107 0.082-0.001 0-0.001 0-0.002 0-0.053 0-0.097-0.041-0.102-0.092l-0-0c-0.011-0.026-0.018-0.057-0.018-0.089 0-0.068 0.029-0.129 0.076-0.171l0-0c0.054-0.044 0.124-0.070 0.2-0.070 0.070 0 0.135 0.022 0.187 0.060l-0.001-0.001z"></path>
<path d="M18.877 24.151c0.2-0.173 0.394-0.364 0.732-0.219l-0.715 0.282z"></path>
<path d="M21.108 23.759c-0.133 0.106-0.243 0.196-0.357 0.282-0.021 0.022-0.050 0.035-0.083 0.035-0.029 0-0.056-0.011-0.076-0.029l0 0c-0.028-0.028-0.045-0.068-0.045-0.111 0-0.002 0-0.004 0-0.006v0c0.015-0.048 0.059-0.082 0.111-0.082 0.001 0 0.002 0 0.004 0h-0c0.115-0.058 0.251-0.091 0.395-0.091 0.018 0 0.036 0.001 0.054 0.002l-0.002-0z"></path>
<path d="M11.631 15.75c0.004 0.101 0.034 0.195 0.084 0.274l-0.001-0.002c0.025 0.023 0.041 0.056 0.041 0.093 0 0.064-0.048 0.117-0.11 0.125l-0.001 0c-0.122 0.028-0.213 0.132-0.222 0.258l-0 0.001c-0.002 0.012-0.004 0.027-0.005 0.042l-0 0.001c-0.037 0.203-0.245 0.123-0.349 0.211-0.094 0.080-0.080 0.294-0.31 0.202-0.038-0.010-0.081-0.016-0.126-0.016-0.102 0-0.197 0.031-0.276 0.085l0.002-0.001c-0.13 0.073-0.159 0.018-0.192-0.098-0.038-0.137-0.117-0.266-0.164-0.391-0.021-0.054-0.033-0.116-0.033-0.181 0-0.122 0.043-0.233 0.114-0.321l-0.001 0.001c0.077-0.084 0.089-0.124 0.003-0.21-0.131-0.131-0.092-0.236 0.092-0.264 0.090-0.003 0.169-0.044 0.222-0.108l0-0.001c0.082-0.102 0.181-0.014 0.239 0.050 0.034 0.063 0.098 0.104 0.173 0.104 0.082 0 0.152-0.050 0.181-0.121l0-0.001c0.055-0.057 0.115-0.11 0.178-0.156l0.004-0.003c0.020-0.024 0.051-0.040 0.085-0.040 0.004 0 0.008 0 0.013 0.001l-0.001-0c0.015 0.001 0.028 0.008 0.037 0.018l0 0c0.055 0.144 0.17 0.256 0.313 0.305l0.004 0.001c0.015 0.020 0.025 0.046 0.025 0.074 0 0.025-0.007 0.048-0.020 0.067l0-0zM11.183 15.461l-0.060-0.009c-0.055 0.045-0.099 0.102-0.127 0.167l-0.001 0.003c-0.013 0.316-0.194 0.236-0.358 0.154-0.026-0.017-0.058-0.028-0.093-0.028-0.070 0-0.131 0.043-0.156 0.104l-0 0.001c-0.002 0.213-0.156 0.372-0.166 0.579-0.003 0.015-0.004 0.033-0.004 0.051 0 0.144 0.099 0.265 0.232 0.299l0.002 0c0.277-0.010 0.472-0.203 0.707-0.303 0.156-0.181 0.255-0.414 0.268-0.67l0-0.003c-0.036-0.15-0.247-0.164-0.243-0.345z"></path>
<path d="M12.142 16.087c0.004 0.025 0.006 0.053 0.006 0.082 0 0.128-0.047 0.246-0.124 0.336l0.001-0.001c-0.18 0.277-0.392 0.515-0.635 0.716l-0.005 0.004c-0.049 0.040-0.119 0.096-0.168 0.011-0.043-0.075 0.050-0.082 0.088-0.11 0.297-0.232 0.533-0.529 0.686-0.872l0.006-0.014c0.016-0.074 0.072-0.132 0.143-0.152l0.001-0z"></path>
<path d="M9.017 15.247c0.046-0.306 0.307-0.538 0.622-0.538 0.002 0 0.005 0 0.007 0h-0c-0.254 0.131-0.465 0.312-0.625 0.533l-0.004 0.005z"></path>
<path d="M13.828 12.367c0.045 0 0.088 0.011 0.126 0.030l-0.002-0.001c0.063 0.071 0.155 0.115 0.257 0.115 0.045 0 0.088-0.009 0.128-0.025l-0.002 0.001c0.067-0.025 0.115 0.021 0.102 0.098-0.024 0.138 0.067 0.17 0.169 0.208 0.096 0.026 0.177 0.077 0.239 0.147l0 0.001c0.098 0.127 0.129 0.219-0.063 0.28-0.153 0.048-0.048 0.138-0.001 0.174 0.201 0.157 0.136 0.282-0.020 0.421-0.074 0.059-0.134 0.134-0.174 0.219l-0.002 0.004c-0.023 0.101-0.112 0.175-0.218 0.175-0.031 0-0.061-0.006-0.088-0.018l0.001 0.001c-0.128 0.004-0.241 0.068-0.311 0.165l-0.001 0.001c-0.106 0.077-0.212 0.078-0.263-0.025-0.079-0.12-0.21-0.2-0.361-0.207l-0.001-0c-0.062-0.018-0.129-0.022-0.191-0.040-0.312-0.092-0.318-0.098-0.105-0.349 0.159-0.188-0.017-0.338-0.054-0.493-0.010-0.027-0.016-0.057-0.016-0.089 0-0.058 0.019-0.112 0.052-0.155l-0 0.001c0.159-0.257 0.449-0.358 0.639-0.575 0.037-0.039 0.090-0.063 0.148-0.063 0.005 0 0.010 0 0.014 0.001l-0.001-0zM13.223 13.896c0.018-0.002 0.039-0.002 0.060-0.002 0.102 0 0.2 0.021 0.288 0.058l-0.005-0.002c0.23 0.196 0.413 0.123 0.661 0.021 0.164-0.116 0.306-0.229 0.442-0.349l-0.005 0.005c0.055-0.028-0.016-0.067-0.041-0.096-0.147-0.169-0.244-0.344-0.072-0.525-0.221-0.142-0.441-0.275-0.65-0.421-0.029-0.025-0.068-0.040-0.11-0.040s-0.079 0.015-0.108 0.039l0-0c-0.048 0.035-0.143 0.106-0.104 0.142 0.258 0.236-0.006 0.198-0.119 0.257-0.094 0.049-0.287 0.087-0.221 0.215 0.044 0.098 0.069 0.212 0.069 0.332 0 0.134-0.032 0.261-0.088 0.373l0.002-0.005z"></path>
<path d="M14.454 15.32c0.105-0.156 0.258-0.271 0.439-0.326l0.006-0.002c0.456-0.277 0.826-0.651 1.090-1.095l0.008-0.015c0.087-0.094 0.155-0.206 0.197-0.33l0.002-0.007c0.003-0.045 0.040-0.081 0.085-0.081 0.010 0 0.019 0.002 0.027 0.004l-0.001-0c0.050 0.028 0.027 0.085-0.001 0.135-0.292 0.585-0.722 1.063-1.249 1.404l-0.014 0.008c-0.19 0.112-0.393 0.202-0.59 0.302z"></path>
<path d="M14.76 14.823c-0.336 0.159-0.729 0.254-1.144 0.259h-0.002c-0.002 0-0.004 0-0.006 0-0.059 0-0.107-0.047-0.11-0.105v-0c0.011-0.040 0.047-0.069 0.090-0.069 0.012 0 0.024 0.002 0.035 0.007l-0.001-0c0.393 0.11 0.75-0.114 1.137-0.090z"></path>
<path d="M16.203 14.195c-0.221 0.304-0.508 0.547-0.84 0.712l-0.013 0.006q0.406-0.382 0.812-0.764z"></path>
<path d="M3.145 23.797c-0.058 0.040-0.28-0.152-0.175 0.125 0.024 0.065-0.081 0.081-0.148 0.082-0.095 0.001-0.106-0.061-0.101-0.133 0.022-0.274-0.040-0.329-0.31-0.339-0.236-0.008-0.456 0.099-0.695 0.079 0.166-0.333 0.916-0.234 1.429 0.185z"></path>
<path d="M6.18 24.311c-0.189 0.128-0.42 0.052-0.621 0.132 0.147-0.087 0.325-0.138 0.514-0.138 0.038 0 0.075 0.002 0.111 0.006l-0.005-0z"></path>
<path d="M10.942 15.921c0.008-0.001 0.016-0.002 0.025-0.002 0.091 0 0.165 0.074 0.165 0.165 0 0.005-0 0.010-0.001 0.015l0-0.001c0.002 0.011 0.003 0.023 0.003 0.036 0 0.126-0.102 0.229-0.229 0.229-0.001 0-0.002 0-0.003-0h0c-0.010 0.002-0.021 0.003-0.033 0.003-0.099 0-0.179-0.080-0.179-0.179 0-0.007 0-0.014 0.001-0.021l-0 0.001c0.011-0.133 0.117-0.238 0.249-0.247l0.001-0z"></path>
<path d="M13.925 13.787c-0.002 0-0.004 0-0.007 0-0.067 0-0.121-0.054-0.121-0.121 0-0.019 0.005-0.038 0.013-0.054l-0 0.001c0.019-0.027 0.031-0.061 0.031-0.097 0-0.053-0.024-0.1-0.063-0.131l-0-0c-0.024-0.020-0.039-0.050-0.039-0.083 0-0.021 0.006-0.040 0.016-0.057l-0 0c0.019-0.026 0.049-0.043 0.084-0.043 0.027 0 0.052 0.011 0.070 0.028l-0-0c0.027 0.014 0.058 0.021 0.092 0.021 0.004 0 0.008-0 0.012-0l-0.001 0c0.102 0.005 0.236-0.046 0.232 0.138 0.002 0.014 0.003 0.030 0.003 0.046 0 0.184-0.14 0.335-0.32 0.351l-0.001 0z"></path>
</symbol><symbol id="icon-magic" viewBox="0 0 32 32"> <path stroke-linejoin="miter" stroke-linecap="square" stroke-miterlimit="4" stroke-width="1.242" d="M21.088 1.778c-1.297 10.116-0.915 13.095-9.969 14.222 8.902 1.381 9.030 4.498 9.969 14.222 1.239-9.781 0.998-12.711 9.971-14.222-9.043-1.109-8.74-4.117-9.971-14.222zM6.321 2.039c-0.698 5.458-0.493 7.067-5.38 7.675 4.804 0.747 4.873 2.427 5.38 7.675 0.668-5.28 0.538-6.86 5.382-7.675-4.881-0.599-4.717-2.222-5.382-7.675zM11.219 17.362c-0.489 3.828-0.346 4.955-3.772 5.381 3.369 0.523 3.416 1.701 3.772 5.381 0.471-3.701 0.376-4.811 3.772-5.381-3.42-0.42-3.305-1.557-3.772-5.381z"></path> </symbol> <symbol id="icon-cross" viewBox="0 0 26 32"> <path d="M9.195 12.956c1.137-0.254 2.347-0.386 3.602-0.386s2.465 0.132 3.602 0.386c-1.219 0.465-2.435 1.015-3.602 1.651-1.167-0.636-2.383-1.186-3.602-1.651z"></path> <path d="M24.799 22.556c0 3.509-5.539 5.446-12.002 5.446s-12.002-1.937-12.002-5.446c0-3.934 2.063-6.821 5.205-8.452 0.635 0.365 1.527 0.287 4.646 1.807-1.904 1.271-4.132 3.101-5.425 5.373-0.293 0.514-0.114 1.169 0.401 1.461 0.518 0.294 1.171 0.11 1.461-0.402 1.015-1.781 3.071-3.664 5.713-5.263 2.642 1.599 4.699 3.482 5.713 5.262 0.29 0.512 0.943 0.695 1.461 0.402 0.515-0.293 0.694-0.947 0.401-1.461-1.292-2.271-3.521-4.102-5.425-5.373 3.048-1.485 4.068-1.475 4.646-1.807 3.143 1.631 5.205 4.518 5.205 8.452z"></path> <path d="M12.106 9.616c-1.095-1.649-0.41-2.656-0.002-3.257 0.32-0.47 0.361-0.53 0.020-1.002-0.276-0.384-0.19-0.92 0.194-1.197s0.919-0.19 1.197 0.194c1.042 1.446 0.394 2.399 0.007 2.969-0.333 0.491-0.446 0.656 0.012 1.344 0.262 0.394 0.155 0.926-0.24 1.189-0.393 0.261-0.926 0.155-1.188-0.24z"></path> <path d="M6.105 10.474c-1.095-1.649-0.41-2.656-0.002-3.257 0.32-0.47 0.361-0.53 0.020-1.002-0.276-0.384-0.19-0.92 0.194-1.197s0.92-0.19 1.197 0.194c1.042 1.446 0.394 2.399 0.006 2.969-0.333 0.491-0.446 0.656 0.012 1.344 0.262 0.394 0.155 0.926-0.24 1.189-0.393 0.261-0.926 0.155-1.188-0.24z"></path> <path d="M18.107 10.474c-1.095-1.649-0.41-2.656-0.002-3.257 0.32-0.47 0.361-0.53 0.020-1.002-0.276-0.384-0.19-0.92 0.194-1.197s0.92-0.19 1.197 0.194c1.042 1.446 0.394 2.399 0.006 2.969-0.333 0.491-0.446 0.656 0.012 1.344 0.262 0.394 0.155 0.926-0.24 1.189-0.393 0.261-0.926 0.155-1.188-0.24z"></path> </symbol> <symbol id="icon-open-burger" viewBox="0 0 26 32"> <path d="M13.87 28.527h-2.035c-0.088 0-0.16-0.069-0.163-0.157l-0.388-10.867c-0.003-0.090 0.067-0.166 0.157-0.169 0.091-0.001 0.166 0.067 0.169 0.157l0.382 10.71h1.721l0.047-1.325c0.003-0.090 0.080-0.16 0.169-0.157 0.090 0.003 0.16 0.079 0.157 0.169l-0.053 1.482c-0.003 0.088-0.075 0.157-0.163 0.157z"></path> <path d="M14.011 24.575c-0.002 0-0.004-0-0.006-0-0.090-0.003-0.16-0.079-0.157-0.169l0.246-6.916c0.003-0.090 0.080-0.159 0.169-0.157 0.090 0.003 0.16 0.079 0.157 0.169l-0.246 6.916c-0.003 0.088-0.075 0.157-0.163 0.157z"></path> <path d="M15.498 28.527h-5.292c-0.083 0-0.153-0.063-0.162-0.146l-1.158-10.867c-0.010-0.089 0.055-0.17 0.145-0.179s0.17 0.055 0.179 0.145l1.142 10.722h4.996l0.994-10.72c0.008-0.090 0.088-0.155 0.177-0.147s0.156 0.088 0.147 0.177l-1.008 10.867c-0.008 0.084-0.078 0.148-0.162 0.148z"></path> <path d="M8.528 28.527c-0.079 0-0.149-0.058-0.161-0.139l-1.11-7.41c-0.013-0.089 0.048-0.172 0.137-0.185s0.172 0.048 0.185 0.137l1.11 7.41c0.013 0.089-0.048 0.172-0.137 0.185-0.008 0.001-0.016 0.002-0.024 0.002z"></path> <path d="M18.236 21.117c-0.008 0-0.016-0.001-0.024-0.002-0.089-0.013-0.15-0.096-0.137-0.185l0.518-3.458c0.013-0.089 0.097-0.15 0.185-0.137s0.15 0.096 0.137 0.185l-0.518 3.458c-0.012 0.081-0.082 0.139-0.161 0.139z"></path> <path d="M17.126 28.527c-0.008 0-0.016-0.001-0.024-0.002-0.089-0.013-0.15-0.096-0.137-0.185l0.814-5.434c0.013-0.089 0.097-0.15 0.185-0.137s0.15 0.096 0.137 0.185l-0.814 5.434c-0.012 0.081-0.082 0.139-0.161 0.139z"></path> <path d="M17.277 28.527h-8.85c-0.935 0-1.728-0.632-1.887-1.502l-1.594-7.573c-0.11-0.52 0.020-1.056 0.355-1.469s0.832-0.65 1.364-0.65h12.373c0.532 0 1.029 0.237 1.364 0.65s0.464 0.948 0.355 1.469l-1.595 7.578c-0.158 0.866-0.951 1.497-1.886 1.497zM6.666 17.659c-0.433 0-0.838 0.193-1.111 0.529s-0.378 0.772-0.289 1.196l1.595 7.578c0.131 0.72 0.79 1.239 1.567 1.239h8.85c0.777 0 1.436-0.519 1.566-1.234l1.596-7.582c0.089-0.424-0.016-0.86-0.289-1.196s-0.678-0.529-1.111-0.529h-12.373z"></path> <path d="M19.012 17.659h-11.424c-0.023 0-0.047-0.005-0.068-0.015-1.227-0.562-2.030-1.439-2.321-2.538-0.316-1.192 0.004-2.535 0.9-3.781 1.007-1.4 1.982-1.668 3.111-1.978 0.832-0.228 1.774-0.487 2.951-1.237 0.874-0.557 1.349-1.214 1.375-1.9 0.029-0.783-0.532-1.626-1.623-2.44-0.055-0.041-0.079-0.114-0.058-0.18s0.081-0.112 0.151-0.114c0.081-0.002 0.161-0.003 0.241-0.003 2.155 0 4.254 0.83 5.911 2.337 1.666 1.516 2.673 3.528 2.836 5.667 0.18 2.375-0.427 4.377-1.856 6.122-0.031 0.038-0.077 0.060-0.126 0.060zM7.624 17.333h11.31c1.338-1.662 1.905-3.57 1.734-5.831-0.318-4.171-3.967-7.579-8.19-7.7 0.948 0.799 1.413 1.612 1.383 2.42-0.030 0.798-0.557 1.547-1.525 2.163-1.218 0.777-2.186 1.043-3.040 1.277-1.113 0.305-1.992 0.547-2.932 1.853-0.838 1.165-1.14 2.411-0.85 3.507 0.263 0.991 0.992 1.789 2.109 2.31z"></path> <path d="M10.063 17.659c-0.038 0-0.075-0.013-0.105-0.038-0.926-0.775-1.43-1.668-1.497-2.655-0.151-2.208 1.863-4.426 3.333-6.046 0.253-0.279 0.492-0.542 0.695-0.778 0.165-0.191 0.305-0.398 0.419-0.615 0.041-0.080 0.14-0.111 0.22-0.069s0.111 0.14 0.069 0.22c-0.125 0.24-0.28 0.468-0.461 0.677-0.206 0.24-0.446 0.504-0.701 0.785-1.431 1.576-3.391 3.735-3.249 5.805 0.060 0.878 0.509 1.681 1.335 2.388 1.365-0.020 2.761-0.013 4.112-0.006 0.648 0.003 1.317 0.007 1.974 0.007 0.725-1.666 1.032-3.577 0.938-5.836-0.162-3.907-1.973-7.272-4.122-7.661-0.089-0.016-0.147-0.101-0.131-0.189s0.101-0.147 0.189-0.131c1.122 0.203 2.188 1.129 3.003 2.607 0.812 1.474 1.304 3.377 1.387 5.36 0.098 2.355-0.232 4.343-1.009 6.080-0.026 0.059-0.085 0.096-0.149 0.096-0.692 0-1.398-0.003-2.082-0.007-1.369-0.007-2.785-0.014-4.166 0.007-0.001 0-0.002 0-0.003 0z"></path> <path d="M14.054 17.659c-0.022 0-0.045-0.005-0.066-0.014-0.082-0.037-0.119-0.133-0.082-0.215 0.756-1.686 1.077-3.626 0.981-5.933-0.004-0.090 0.066-0.166 0.156-0.17 0.091-0.004 0.166 0.066 0.17 0.156 0.098 2.358-0.232 4.347-1.009 6.080-0.027 0.061-0.087 0.096-0.149 0.096z"></path> <path d="M21.003 5.542v0c-0.3 0-0.543-0.243-0.543-0.543v0c-0-0.3 0.243-0.543 0.543-0.543v0c0.3-0 0.543 0.243 0.543 0.543v0c0 0.3-0.243 0.543-0.543 0.543z"></path> <path d="M15.026 10.432v0c-0.3 0-0.543-0.243-0.543-0.543v0c-0-0.3 0.243-0.543 0.543-0.543v0c0.3-0 0.543 0.243 0.543 0.543v0c0 0.3-0.243 0.543-0.543 0.543z"></path> <path d="M23.72 21.843v0c-0.3 0-0.543-0.243-0.543-0.543v0c-0-0.3 0.243-0.543 0.543-0.543v0c0.3-0 0.543 0.243 0.543 0.543v0c0 0.3-0.243 0.543-0.543 0.543z"></path> <path d="M22.090 26.19v0c-0.3 0-0.543-0.243-0.543-0.543v0c-0-0.3 0.243-0.543 0.543-0.543v0c0.3-0 0.543 0.243 0.543 0.543v0c0 0.3-0.243 0.543-0.543 0.543z"></path> <path d="M23.72 12.606v0c-0.3 0-0.543-0.243-0.543-0.543v0c-0-0.3 0.243-0.543 0.543-0.543v0c0.3-0 0.543 0.243 0.543 0.543v0c0 0.3-0.243 0.543-0.543 0.543z"></path> <path d="M10.135 6.629v0c-0.3 0-0.543-0.243-0.543-0.543v0c-0-0.3 0.243-0.543 0.543-0.543v0c0.3-0 0.543 0.243 0.543 0.543v0c0 0.3-0.243 0.543-0.543 0.543z"></path> <path d="M3.615 11.519v0c-0.3 0-0.543-0.243-0.543-0.543v0c-0-0.3 0.243-0.543 0.543-0.543v0c0.3-0 0.543 0.243 0.543 0.543v0c0 0.3-0.243 0.543-0.543 0.543z"></path> <path d="M1.984 6.085v0c-0.3 0-0.543-0.243-0.543-0.543v0c-0-0.3 0.243-0.543 0.543-0.543v0c0.3-0 0.543 0.243 0.543 0.543v0c0 0.3-0.243 0.543-0.543 0.543z"></path> <path d="M24.127 8.965c-0.042 0-0.083-0.016-0.115-0.048l-0.951-0.951c-0.064-0.064-0.064-0.167 0-0.23l0.836-0.836-0.836-0.836c-0.064-0.064-0.064-0.167 0-0.23l0.951-0.951c0.064-0.064 0.167-0.064 0.23 0s0.064 0.167 0 0.23l-0.836 0.836 0.836 0.836c0.064 0.064 0.064 0.167 0 0.23l-0.836 0.836 0.836 0.836c0.064 0.064 0.064 0.167 0 0.23-0.032 0.032-0.074 0.048-0.115 0.048z"></path> <path d="M3.071 18.927c-0.013 0-0.026-0.002-0.040-0.005l-1.449-0.362c-0.057-0.014-0.102-0.058-0.118-0.115s0-0.117 0.042-0.159l0.871-0.871-1.513-0.303c-0.088-0.018-0.146-0.104-0.128-0.192s0.104-0.146 0.192-0.128l1.811 0.362c0.059 0.012 0.107 0.055 0.124 0.113s0.002 0.12-0.041 0.163l-0.883 0.883 1.17 0.292c0.087 0.022 0.14 0.11 0.119 0.198-0.018 0.074-0.085 0.124-0.158 0.124z"></path> <path d="M5.788 6.792c-0.689 0-1.25-0.561-1.25-1.25s0.561-1.25 1.25-1.25 1.25 0.561 1.25 1.25-0.561 1.25-1.25 1.25zM5.788 4.618c-0.509 0-0.924 0.414-0.924 0.924s0.414 0.924 0.924 0.924 0.924-0.414 0.924-0.924-0.414-0.924-0.924-0.924z"></path> <path d="M23.667 18.644c-0.139 0-0.275-0.029-0.402-0.087-0.629-0.284-0.835-0.936-1.073-1.691-0.077-0.243-0.156-0.494-0.255-0.755-0.032-0.084 0.011-0.178 0.095-0.21 0.261-0.099 0.501-0.205 0.734-0.308 0.524-0.232 0.976-0.433 1.423-0.433 0.197 0 0.379 0.039 0.555 0.118 0.493 0.222 0.713 0.804 0.491 1.297-0.163 0.362-0.417 0.506-0.744 0.561 0.176 0.282 0.235 0.568 0.072 0.93-0.158 0.351-0.51 0.578-0.895 0.578zM22.298 16.147c0.077 0.215 0.142 0.421 0.205 0.621 0.224 0.709 0.4 1.268 0.896 1.492 0.085 0.039 0.176 0.058 0.268 0.058 0.257 0 0.492-0.152 0.598-0.386 0.127-0.283 0.079-0.484-0.201-0.827-0.039-0.048-0.048-0.114-0.022-0.17s0.080-0.093 0.142-0.096c0.442-0.018 0.625-0.114 0.753-0.397 0.148-0.329 0.001-0.717-0.327-0.866-0.133-0.060-0.271-0.089-0.421-0.089-0.378 0-0.801 0.188-1.291 0.405-0.192 0.085-0.389 0.172-0.6 0.257z"></path> <path d="M2.709 26.265c-0.139 0-0.275-0.029-0.403-0.087-0.361-0.163-0.506-0.416-0.561-0.744-0.154 0.096-0.328 0.167-0.523 0.167-0.131 0-0.264-0.031-0.407-0.096-0.239-0.108-0.422-0.302-0.515-0.547s-0.085-0.512 0.023-0.75c0.284-0.629 0.936-0.835 1.691-1.073 0.243-0.077 0.494-0.156 0.756-0.255 0.041-0.015 0.085-0.014 0.125 0.004s0.070 0.050 0.086 0.091c0.099 0.261 0.205 0.502 0.308 0.734 0.321 0.724 0.598 1.349 0.314 1.978-0.158 0.351-0.509 0.578-0.895 0.578zM1.88 24.971c0.023 0 0.046 0.005 0.067 0.014 0.056 0.025 0.093 0.080 0.096 0.142 0.018 0.442 0.114 0.625 0.397 0.753 0.085 0.039 0.176 0.058 0.269 0.058 0.257 0 0.492-0.151 0.597-0.386 0.224-0.496-0.014-1.033-0.315-1.712-0.085-0.192-0.172-0.389-0.257-0.6-0.215 0.077-0.421 0.142-0.621 0.205-0.709 0.224-1.268 0.4-1.492 0.896-0.072 0.159-0.077 0.337-0.015 0.501s0.184 0.293 0.344 0.365c0.1 0.045 0.189 0.067 0.273 0.067 0.161 0 0.322-0.078 0.555-0.267 0.030-0.024 0.066-0.037 0.103-0.037z"></path> </symbol> <symbol id="icon-kruasan" viewBox="0 0 26 32">
<path d="M21.914 9.242c0.128-0.128 0.256-0.282 0.333-0.512 0.282-0.691 0.23-1.459-0.128-2.125 0 0-0.026-0.026-0.026-0.026-0.051-0.077-0.102-0.179-0.154-0.256-0.026-0.051-0.077-0.077-0.102-0.128s-0.077-0.102-0.102-0.128v0c0 0 0 0 0 0l-1.792-1.792c-0.051-0.051-0.102-0.077-0.154-0.128-0.026-0.026-0.077-0.077-0.102-0.102-0.077-0.051-0.179-0.128-0.256-0.154 0 0-0.026 0-0.026-0.026-0.64-0.358-1.434-0.435-2.125-0.128-0.205 0.102-0.384 0.205-0.512 0.333l-2.202-1.28c-0.64-0.384-1.408-0.435-2.022-0.128-0.384 0.179-0.614 0.41-0.742 0.717l-0.282 0.64-1.51-0.435c-0.256-0.077-0.512-0.102-0.742-0.077-0.896 0.102-1.664 0.845-2.176 2.099-0.051 0.128 0 0.282 0.128 0.333l2.97 1.28c-0.051 0.563 0.23 1.152 0.742 1.459l1.792 1.101c-0.154 0.41-0.051 0.87 0.256 1.178v0c0 0 0 0 0 0l2.074 2.074c0 0 0 0 0 0v0c0.205 0.23 0.512 0.333 0.794 0.333 0.128 0 0.256-0.026 0.384-0.077l1.101 1.792c0.282 0.486 0.819 0.742 1.331 0.742 0.051 0 0.077 0 0.128 0l1.28 2.97c0.051 0.102 0.128 0.154 0.23 0.154 0.026 0 0.077 0 0.102-0.026 1.254-0.512 1.997-1.28 2.099-2.176 0.026-0.23 0-0.486-0.077-0.742l-0.435-1.459 0.64-0.282c0.307-0.128 0.538-0.384 0.717-0.768 0.282-0.64 0.23-1.382-0.128-2.022l-1.306-2.227zM14.029 11.264l-0.691-0.691c-0.205-0.205-0.23-0.538-0.077-0.794l3.738-5.222c0 0 0-0.026 0.026-0.051l0.026-0.051c0.102-0.128 0.256-0.23 0.512-0.307 0.205-0.051 0.384-0.102 0.589-0.102 0.358 0 0.717 0.102 1.024 0.307 0.026 0 0.026 0.026 0.051 0.026 0.026 0.026 0.077 0.051 0.102 0.077 0.051 0.051 0.102 0.077 0.154 0.128 0 0 0.026 0.026 0.026 0.026l1.792 1.792c0.051 0.051 0.102 0.102 0.128 0.154 0.026 0.026 0.026 0.026 0.051 0.051 0.384 0.512 0.486 1.152 0.307 1.741-0.077 0.256-0.179 0.41-0.307 0.512l-0.051 0.026c-0.026 0-0.026 0-0.051 0.026l-3.123 2.253-2.099 1.485c-0.23 0.179-0.563 0.154-0.794-0.051l-1.331-1.331zM9.344 3.994c0.154-0.026 0.333 0 0.538 0.051l1.408 0.435-0.947 2.202-2.662-1.126c0.282-0.64 0.819-1.459 1.664-1.562zM10.778 6.912l1.434-3.328c0.077-0.205 0.23-0.333 0.486-0.461 0.205-0.102 0.435-0.128 0.666-0.128 0.307 0 0.614 0.077 0.896 0.256l2.15 1.254-3.43 4.813-1.792-1.101c-0.435-0.282-0.614-0.845-0.41-1.306zM21.914 16.128c0.051 0.205 0.077 0.384 0.051 0.538-0.077 0.819-0.922 1.357-1.536 1.664l-1.126-2.637 2.202-0.947 0.41 1.382zM22.861 13.261c-0.128 0.256-0.256 0.41-0.461 0.486l-3.328 1.434c-0.486 0.205-1.050 0.026-1.306-0.41l-1.101-1.792 4.813-3.43 1.254 2.15c0.307 0.512 0.333 1.101 0.128 1.562z"></path>
<path d="M4.198 16.666c-0.128 0.128-0.256 0.282-0.333 0.512-0.282 0.691-0.23 1.459 0.128 2.125 0 0 0 0.026 0.026 0.026 0.051 0.077 0.102 0.179 0.154 0.256 0.026 0.051 0.077 0.077 0.102 0.102 0.051 0.051 0.077 0.102 0.128 0.128v0 0l1.792 1.792c0.461 0.461 1.101 0.717 1.741 0.717 0.307 0 0.614-0.051 0.896-0.179 0.205-0.102 0.384-0.205 0.512-0.333l2.202 1.28c0.358 0.205 0.768 0.333 1.152 0.333 0.307 0 0.589-0.051 0.87-0.179 0.384-0.179 0.614-0.41 0.768-0.717l0.282-0.64 1.459 0.435c0.205 0.051 0.384 0.102 0.563 0.102 0.051 0 0.102 0 0.154 0 0.896-0.102 1.664-0.845 2.176-2.099 0.051-0.128 0-0.282-0.128-0.333l-2.97-1.28c0.051-0.563-0.23-1.152-0.742-1.459l-1.792-1.101c0.154-0.41 0.051-0.87-0.256-1.178v0c0 0 0 0 0 0l-2.048-2.048c0 0 0 0 0 0v0c-0.307-0.307-0.768-0.41-1.178-0.256l-1.101-1.792c-0.307-0.512-0.896-0.794-1.459-0.742l-1.28-2.97c-0.051-0.128-0.205-0.179-0.333-0.128-1.254 0.512-1.997 1.28-2.099 2.176-0.026 0.23 0 0.486 0.077 0.742l0.435 1.459-0.64 0.282c-0.307 0.128-0.538 0.384-0.717 0.768-0.23 0.589-0.179 1.357 0.179 1.997l1.28 2.202zM11.725 14.31l1.024 1.024c0.205 0.205 0.23 0.538 0.077 0.794l-3.738 5.222c0 0 0 0.026-0.026 0.051l-0.026 0.051c-0.102 0.128-0.256 0.23-0.512 0.307-0.614 0.205-1.254 0.077-1.741-0.307-0.026 0-0.026-0.026-0.051-0.026-0.051-0.051-0.102-0.102-0.179-0.154l-1.792-1.792c-0.051-0.051-0.102-0.102-0.154-0.154 0-0.026-0.026-0.026-0.026-0.051-0.384-0.512-0.486-1.152-0.307-1.741 0.077-0.256 0.179-0.41 0.307-0.512l0.026-0.026c0.026 0 0.026-0.026 0.051-0.026l5.222-3.738c0.102-0.077 0.23-0.102 0.358-0.102 0.154 0 0.307 0.051 0.435 0.179l1.050 0.998zM16.794 21.914c-0.154 0.026-0.333 0-0.538-0.051l-1.408-0.435 0.947-2.202 2.637 1.152c-0.282 0.614-0.819 1.434-1.638 1.536zM15.334 18.995l-1.434 3.328c-0.077 0.205-0.23 0.333-0.512 0.461-0.486 0.23-1.075 0.179-1.562-0.102l-2.15-1.254 3.43-4.813 1.792 1.101c0.461 0.256 0.64 0.819 0.435 1.28zM4.198 9.805c-0.051-0.205-0.077-0.384-0.051-0.538 0.077-0.819 0.922-1.357 1.536-1.664l1.126 2.637-2.202 0.947-0.41-1.382zM3.251 12.646c0.128-0.256 0.256-0.41 0.461-0.486l3.328-1.434c0.128-0.051 0.282-0.077 0.41-0.077 0.358 0 0.717 0.179 0.896 0.512l1.101 1.792-4.813 3.405-1.254-2.15c-0.307-0.512-0.333-1.075-0.128-1.562z"></path>
</symbol>
<symbol id="icon-tort" viewBox="0 0 26 32">
<path d="M24.3 24.5h-23c-0.11 0-0.2-0.090-0.2-0.2v-2.998c0-0.11 0.090-0.2 0.2-0.2h23c0.11 0 0.2 0.090 0.2 0.2v2.998c0 0.11-0.090 0.2-0.2 0.2zM1.5 24.1h22.6v-2.598h-22.6v2.598z"></path>
<path d="M22.3 21.502h-19c-0.11 0-0.2-0.090-0.2-0.2v-11.993c0-0.11 0.090-0.2 0.2-0.2s0.2 0.090 0.2 0.2v11.793h18.6v-11.793c0-0.11 0.090-0.2 0.2-0.2s0.2 0.090 0.2 0.2v11.993c0 0.11-0.090 0.2-0.2 0.2z"></path>
<path d="M15.050 14.506h-2c-0.524 0-0.95-0.426-0.95-0.95 0-0.303-0.247-0.55-0.55-0.55h-1.5c-0.303 0-0.55 0.247-0.55 0.55 0 0.524-0.426 0.95-0.95 0.95h-1c-0.524 0-0.95-0.426-0.95-0.95 0-0.303-0.247-0.55-0.55-0.55h-2.75c-0.11 0-0.2-0.090-0.2-0.2s0.090-0.2 0.2-0.2h2.75c0.524 0 0.95 0.426 0.95 0.95 0 0.303 0.247 0.55 0.55 0.55h1c0.303 0 0.55-0.247 0.55-0.55 0-0.524 0.426-0.95 0.95-0.95h1.5c0.524 0 0.95 0.426 0.95 0.95 0 0.303 0.247 0.55 0.55 0.55h2c0.303 0 0.55-0.247 0.55-0.55 0-0.524 0.426-0.95 0.95-0.95h5.75c0.11 0 0.2 0.090 0.2 0.2s-0.090 0.2-0.2 0.2h-5.75c-0.303 0-0.55 0.247-0.55 0.55 0 0.524-0.426 0.95-0.95 0.95z"></path>
<path d="M15.050 19.003h-2c-0.524 0-0.95-0.426-0.95-0.95 0-0.303-0.247-0.55-0.55-0.55h-1.5c-0.303 0-0.55 0.247-0.55 0.55 0 0.524-0.426 0.95-0.95 0.95h-1c-0.524 0-0.95-0.426-0.95-0.95 0-0.303-0.247-0.55-0.55-0.55h-2.75c-0.11 0-0.2-0.090-0.2-0.2s0.090-0.2 0.2-0.2h2.75c0.524 0 0.95 0.426 0.95 0.95 0 0.303 0.247 0.549 0.55 0.549h1c0.303 0 0.55-0.247 0.55-0.549 0-0.524 0.426-0.95 0.95-0.95h1.5c0.524 0 0.95 0.426 0.95 0.95 0 0.303 0.247 0.549 0.55 0.549h2c0.303 0 0.55-0.247 0.55-0.549 0-0.524 0.426-0.95 0.95-0.95h5.75c0.11 0 0.2 0.090 0.2 0.2s-0.090 0.2-0.2 0.2h-5.75c-0.303 0-0.55 0.247-0.55 0.55 0 0.524-0.426 0.95-0.95 0.95z"></path>
<path d="M14.8 11.008c-0.446 0-0.863-0.17-1.178-0.474-0.272 0.3-0.658 0.474-1.072 0.474-0.482 0-0.931-0.243-1.199-0.634-0.169 0.088-0.357 0.134-0.551 0.134-0.228 0-0.447-0.064-0.637-0.184-0.318 0.426-0.822 0.683-1.363 0.683s-1.044-0.257-1.363-0.683c-0.19 0.12-0.409 0.184-0.637 0.184-0.593 0-1.088-0.433-1.183-0.999h-2.817c-0.937 0-1.7-0.762-1.7-1.699s0.763-1.699 1.7-1.699h20c0.937 0 1.7 0.762 1.7 1.699s-0.763 1.699-1.7 1.699h-4.817c-0.096 0.566-0.59 0.999-1.183 0.999-0.228 0-0.448-0.064-0.637-0.184-0.318 0.426-0.822 0.684-1.363 0.684zM13.61 10.020c0.062 0 0.121 0.029 0.159 0.078 0.249 0.323 0.624 0.509 1.032 0.509 0.473 0 0.909-0.257 1.138-0.671 0.030-0.054 0.083-0.091 0.144-0.101s0.123 0.010 0.168 0.052c0.15 0.142 0.345 0.22 0.549 0.22 0.441 0 0.8-0.359 0.8-0.799 0-0.11 0.090-0.2 0.2-0.2h5c0.717 0 1.3-0.583 1.3-1.299s-0.583-1.299-1.3-1.299h-20c-0.717 0-1.3 0.583-1.3 1.299s0.583 1.299 1.3 1.299h3c0.11 0 0.2 0.090 0.2 0.2 0 0.441 0.359 0.799 0.8 0.799 0.205 0 0.4-0.078 0.549-0.22 0.045-0.043 0.107-0.062 0.168-0.052s0.114 0.047 0.144 0.101c0.229 0.414 0.665 0.671 1.138 0.671s0.909-0.257 1.138-0.671c0.030-0.054 0.083-0.091 0.144-0.101s0.123 0.010 0.168 0.052c0.15 0.142 0.345 0.22 0.55 0.22 0.181 0 0.353-0.060 0.496-0.173 0.048-0.038 0.11-0.052 0.17-0.038s0.109 0.054 0.135 0.109c0.173 0.365 0.546 0.601 0.95 0.601 0.364 0 0.697-0.184 0.89-0.493 0.035-0.056 0.095-0.090 0.16-0.094 0.003-0 0.006-0 0.009-0z"></path>
<path d="M12.8 6.51c-0.937 0-1.7-0.762-1.7-1.699s0.763-1.699 1.7-1.699 1.7 0.762 1.7 1.699c0 0.937-0.763 1.699-1.7 1.699zM12.8 3.512c-0.717 0-1.3 0.583-1.3 1.299s0.583 1.299 1.3 1.299c0.717 0 1.3-0.583 1.3-1.299s-0.583-1.299-1.3-1.299z"></path>
<path d="M12.8 3.512c-0.1 0-0.187-0.075-0.198-0.177-0.004-0.038-0.098-0.936 0.53-1.59 0.47-0.49 1.205-0.702 2.183-0.631 0.11 0.008 0.193 0.104 0.185 0.214s-0.103 0.193-0.214 0.185c-0.854-0.062-1.482 0.109-1.866 0.509-0.5 0.52-0.422 1.26-0.421 1.268 0.012 0.11-0.066 0.209-0.176 0.221-0.008 0.001-0.015 0.001-0.023 0.001z"></path>
<path d="M5.8 15.305c0 0.276-0.224 0.5-0.5 0.5s-0.5-0.224-0.5-0.5c0-0.276 0.224-0.5 0.5-0.5s0.5 0.224 0.5 0.5z"></path>
<path d="M11.3 15.305c0 0.276-0.224 0.5-0.5 0.5s-0.5-0.224-0.5-0.5c0-0.276 0.224-0.5 0.5-0.5s0.5 0.224 0.5 0.5z"></path>
<path d="M5.8 19.303c0 0.276-0.224 0.5-0.5 0.5s-0.5-0.224-0.5-0.5c0-0.276 0.224-0.5 0.5-0.5s0.5 0.224 0.5 0.5z"></path>
<path d="M11.3 19.303c0 0.276-0.224 0.5-0.5 0.5s-0.5-0.224-0.5-0.5c0-0.276 0.224-0.5 0.5-0.5s0.5 0.224 0.5 0.5z"></path>
<path d="M19.3 19.303c0 0.276-0.224 0.5-0.5 0.5s-0.5-0.224-0.5-0.5c0-0.276 0.224-0.5 0.5-0.5s0.5 0.224 0.5 0.5z"></path>
<path d="M14.8 16.804c0 0.276-0.224 0.5-0.5 0.5s-0.5-0.224-0.5-0.5c0-0.276 0.224-0.5 0.5-0.5s0.5 0.224 0.5 0.5z"></path>
<path d="M20.3 14.805c0 0.276-0.224 0.5-0.5 0.5s-0.5-0.224-0.5-0.5c0-0.276 0.224-0.5 0.5-0.5s0.5 0.224 0.5 0.5z"></path><symbol id="icon-burger-cross" viewBox="0 0 26 32">
<path d="M13.65 12.315l-0-0 6.194-6.194-1.218-1.219-6.194 6.194-3.707-3.707-1.218 1.218 4.926 4.926z"></path>
<path d="M15.043 13.708l-1.219 1.219 5.466 5.466 1.218-1.218-4.247-4.247 9.332-9.332-1.218-1.218-9.332 9.332z"></path>
<path d="M11.258 17.493l0 0-4.088 4.088 1.219 1.219 4.088-4.088 8.911 8.911 1.218-1.218-10.13-10.13z"></path>
<path d="M9.865 16.1l1.219-1.219-9.865-9.865-1.218 1.218 8.646 8.646-8.403 8.402 1.218 1.218 8.403-8.403z"></path>
</symbol>
<symbol id="icon-burger-menu" viewBox="0 0 26 32">
<path d="M3.995 24.094c0-0.931-0.755-1.686-1.686-1.686s-1.686 0.755-1.686 1.686c0 0.931 0.755 1.686 1.686 1.686s1.686-0.755 1.686-1.686z"></path>
<path d="M3.995 16c0-0.931-0.755-1.686-1.686-1.686s-1.686 0.755-1.686 1.686c0 0.931 0.755 1.686 1.686 1.686s1.686-0.755 1.686-1.686z"></path>
<path d="M3.995 7.906c0-0.931-0.755-1.686-1.686-1.686s-1.686 0.755-1.686 1.686c0 0.931 0.755 1.686 1.686 1.686s1.686-0.755 1.686-1.686z"></path>
<path d="M23.353 25.78h-15.311c-0.911 0-1.619-0.641-1.619-1.45v-0.472c0-0.809 0.708-1.45 1.619-1.45h15.311c0.911 0 1.619 0.641 1.619 1.45v0.472c0 0.809-0.708 1.45-1.619 1.45z"></path>
<path d="M23.353 17.686h-15.311c-0.911 0-1.619-0.641-1.619-1.45v-0.472c0-0.809 0.708-1.45 1.619-1.45h15.311c0.911 0 1.619 0.641 1.619 1.45v0.472c0 0.809-0.708 1.45-1.619 1.45z"></path>
<path d="M23.353 9.592h-15.311c-0.911 0-1.619-0.641-1.619-1.45v-0.472c0-0.809 0.708-1.45 1.619-1.45h15.311c0.911 0 1.619 0.641 1.619 1.45v0.472c0 0.809-0.708 1.45-1.619 1.45z"></path>
</symbol>
</symbol><symbol id="moon" viewBox="0 0 32 32"><path fill="currentColor" d="M17.701 32a15.97 15.97 0 0012.429-5.925c.442-.544-.04-1.339-.723-1.209-7.763 1.478-14.891-4.474-14.891-12.31 0-4.514 2.416-8.665 6.344-10.9.605-.345.453-1.262-.235-1.389-.879-.17-1.89-.267-2.923-.268-8.832 0-16 7.157-16 16 0 8.832 7.157 16 16 16z"/></symbol><symbol id="sun" viewBox="0 0 32 32"><path fill="currentColor" d="M16 10c-3.306 0-6 2.694-6 6s2.694 6 6 6 6-2.694 6-6-2.694-6-6-6zm15.4 5.031l-5.919-2.956L27.575 5.8c.281-.85-.525-1.656-1.369-1.369l-6.275 2.094L16.969.6c-.4-.8-1.537-.8-1.938 0l-2.956 5.919-6.281-2.094c-.85-.281-1.656.525-1.369 1.369l2.094 6.275L.6 15.032c-.8.4-.8 1.538 0 1.938l5.919 2.956-2.094 6.281c-.281.85.525 1.656 1.369 1.369l6.275-2.094 2.956 5.919c.4.8 1.538.8 1.938 0l2.956-5.919 6.275 2.094c.85.281 1.656-.525 1.369-1.369l-2.094-6.275 5.919-2.956c.813-.406.813-1.544.012-1.944zm-9.744 6.625c-3.119 3.119-8.194 3.119-11.313 0s-3.119-8.194 0-11.313c3.119-3.119 8.194-3.119 11.313 0s3.119 8.194 0 11.313z"/></symbol>
</defs> </svg>